<?xml version="1.0" standalone="no"?>
<!DOCTYPE svg PUBLIC "-//W3C//DTD SVG 20010904//EN"
 "http://www.w3.org/TR/2001/REC-SVG-20010904/DTD/svg10.dtd">
<svg version="1.0" xmlns="http://www.w3.org/2000/svg"
 width="1024.000000pt" height="1024.000000pt" viewBox="0 0 1024.000000 1024.000000"
 preserveAspectRatio="xMidYMid meet">
<metadata>
Created by potrace 1.16, written by Peter Selinger 2001-2019
</metadata>
<g transform="translate(0.000000,1024.000000) scale(0.100000,-0.100000)"
fill="#000000" stroke="none">
<path d="M6250 9911 c0 -6 6 -11 13 -12 6 0 3 -4 -8 -9 -27 -12 -43 -12 -25 0
13 8 12 10 -2 10 -10 0 -18 -7 -18 -15 0 -9 -9 -15 -21 -15 -16 0 -20 -5 -16
-19 3 -14 1 -18 -9 -14 -8 3 -17 -2 -20 -11 -3 -9 -10 -13 -16 -10 -16 10 -58
-5 -58 -21 0 -8 -8 -15 -18 -15 -12 0 -27 -16 -41 -45 -12 -25 -27 -45 -32
-45 -5 0 -9 -5 -9 -10 0 -6 -11 -23 -24 -37 -18 -19 -23 -33 -18 -52 3 -14 4
-39 3 -56 -2 -16 -3 -38 -4 -47 -1 -10 -4 -18 -8 -18 -10 0 -21 -59 -23 -123
0 -31 -4 -57 -8 -57 -5 0 -8 -8 -7 -17 0 -11 3 -13 6 -5 2 6 14 12 25 12 16 0
19 -6 16 -32 l-3 -32 90 -2 c93 -1 232 -18 297 -35 20 -5 73 -14 119 -20 88
-11 176 -31 207 -48 10 -5 57 -20 103 -32 115 -29 279 -114 261 -134 -4 -5 -2
-5 5 -2 6 4 17 1 25 -6 7 -8 19 -12 27 -9 8 3 11 0 7 -6 -3 -6 2 -13 12 -16
10 -4 25 -18 32 -31 7 -14 19 -25 27 -25 7 0 13 -4 13 -10 0 -5 7 -10 15 -10
8 0 15 -4 15 -9 0 -5 23 -23 50 -41 28 -18 54 -38 58 -44 4 -6 21 -22 37 -35
50 -38 155 -140 155 -151 0 -5 14 -16 30 -25 17 -9 30 -23 30 -31 0 -11 6 -14
16 -10 9 3 12 2 9 -5 -4 -6 5 -22 19 -37 41 -43 66 -74 66 -84 0 -5 9 -18 20
-30 11 -12 20 -30 20 -39 0 -10 4 -20 9 -23 16 -10 53 -98 56 -135 9 -86 16
-124 25 -141 6 -10 10 -37 10 -59 0 -66 13 -72 190 -86 41 -3 78 -9 82 -13 5
-5 41 -2 81 6 39 7 99 18 132 23 33 5 69 12 80 14 11 3 31 7 45 9 14 2 37 7
53 11 18 5 27 3 27 -4 0 -7 6 -11 13 -10 26 3 37 -2 37 -16 0 -8 -6 -15 -12
-15 -7 0 -39 -18 -72 -40 -32 -22 -64 -40 -70 -40 -37 -1 -526 -445 -526 -479
0 -5 5 -13 10 -16 15 -9 12 -43 -6 -70 -9 -14 -14 -34 -11 -45 3 -11 1 -35 -3
-54 -5 -21 -4 -36 2 -38 6 -2 4 -15 -3 -32 -12 -25 -16 -27 -48 -21 -20 3 -44
8 -54 11 -24 7 39 -79 71 -97 12 -7 22 -21 22 -31 0 -10 4 -18 8 -18 5 0 18
-9 30 -20 12 -12 22 -18 22 -15 0 3 16 -2 36 -10 41 -17 82 -19 103 -6 11 7
10 11 -5 19 -10 6 -19 21 -20 34 -5 45 -11 63 -22 63 -6 0 -16 5 -23 12 -8 8
-6 13 11 18 16 5 19 10 10 20 -18 22 -3 34 51 41 35 5 47 10 40 17 -7 7 -22 7
-48 -1 -22 -7 -41 -8 -47 -2 -13 13 2 43 19 37 8 -4 16 2 20 13 3 10 15 22 26
25 16 5 18 9 8 21 -9 12 -9 13 3 9 12 -5 17 3 22 29 4 19 12 41 19 48 7 7 16
21 20 31 4 11 16 21 27 24 11 3 20 12 20 19 0 8 7 14 16 14 9 0 33 13 53 28
20 15 57 38 84 52 26 13 65 38 86 56 21 18 41 30 45 27 3 -3 6 1 6 10 0 10 5
17 11 17 7 0 9 10 7 25 -4 17 -1 25 8 25 8 0 17 12 20 28 8 34 57 81 62 59 2
-8 21 -22 44 -30 22 -9 38 -14 34 -10 -3 3 3 12 14 20 11 8 20 21 20 29 0 8 5
14 12 14 6 0 9 3 5 6 -9 9 20 61 40 73 16 9 16 10 -3 11 -18 0 -20 6 -19 45 2
34 8 50 26 66 22 19 24 19 30 2 6 -17 7 -17 14 -1 4 9 13 14 21 11 8 -3 20 0
27 5 15 12 82 9 100 -5 7 -6 39 -20 72 -33 144 -55 175 -71 227 -114 64 -54
90 -71 190 -126 73 -40 109 -67 145 -109 26 -31 76 -85 111 -120 34 -35 62
-67 62 -71 0 -4 23 -36 51 -71 28 -35 58 -77 66 -94 9 -16 19 -32 24 -35 10
-7 69 -119 69 -132 0 -5 14 -37 31 -71 38 -74 94 -226 104 -277 1 -8 5 -22 8
-30 3 -8 5 -22 5 -30 0 -8 5 -40 11 -70 7 -30 14 -86 17 -125 3 -38 8 -77 11
-85 5 -14 7 -160 3 -170 -6 -12 -10 -61 -15 -145 -2 -49 -11 -133 -20 -185
-21 -126 -20 -123 -33 -128 -7 -2 -9 -9 -6 -14 4 -6 0 -16 -8 -22 -8 -6 -27
-40 -41 -76 -48 -121 -102 -236 -122 -262 -11 -15 -36 -49 -55 -77 -19 -27
-38 -50 -42 -51 -5 0 -8 -6 -8 -12 0 -7 -14 -26 -31 -43 -17 -16 -50 -52 -73
-79 -66 -78 -108 -118 -213 -199 -75 -59 -100 -74 -228 -135 -130 -63 -141
-67 -265 -96 -239 -57 -355 -56 -575 2 -136 36 -215 37 -215 2 0 -18 82 -100
100 -100 6 0 26 -11 43 -24 46 -35 298 -160 319 -159 10 1 18 -2 18 -7 0 -14
33 -21 42 -8 5 8 8 9 8 2 0 -13 168 -12 188 0 6 3 14 2 17 -4 4 -7 11 -7 18
-2 7 5 27 12 46 16 19 3 42 13 52 22 9 8 19 11 22 7 3 -5 22 -7 41 -5 20 2 33
8 30 13 -7 12 15 51 25 44 5 -2 38 6 75 19 36 13 64 20 60 15 -3 -5 0 -9 5 -9
6 0 11 6 11 14 0 16 53 31 71 20 8 -5 9 -3 4 6 -6 10 -4 12 7 7 9 -3 33 1 54
8 44 15 291 141 314 160 8 7 26 16 40 20 56 17 316 183 381 244 l69 63 -1
1642 c0 902 -3 1635 -6 1629 -2 -7 -11 -13 -19 -13 -8 0 -11 6 -8 15 9 23 -4
18 -17 -6 -6 -12 -7 -19 -2 -16 14 9 39 -16 40 -40 1 -13 -2 -23 -8 -23 -5 0
-9 7 -9 15 0 8 -6 15 -12 15 -9 0 -8 4 2 10 12 8 9 10 -12 10 -16 0 -28 -5
-28 -11 0 -5 6 -7 13 -3 6 4 2 -4 -11 -18 -13 -14 -22 -29 -20 -34 3 -9 -4
-14 -22 -14 -5 0 -6 7 -3 17 4 11 3 14 -5 9 -7 -4 -12 -1 -12 8 0 9 -4 16 -10
16 -5 0 -9 10 -9 23 1 16 2 18 6 5 2 -10 9 -18 14 -18 11 0 -7 37 -27 58 -16
16 -8 40 13 38 9 0 18 5 21 13 3 9 -1 11 -16 7 -13 -4 -22 -1 -26 9 -3 10 -2
13 4 10 6 -4 9 -1 8 7 -2 7 -11 18 -20 23 -9 6 -17 15 -18 20 -1 6 -6 16 -12
23 -6 6 -7 12 -3 12 5 0 0 9 -10 20 -11 12 -20 26 -21 33 -11 60 -28 115 -42
131 -9 11 -12 16 -5 13 6 -4 3 11 -8 33 -11 22 -24 40 -29 40 -6 0 -10 5 -10
11 0 5 5 7 12 3 7 -4 8 -3 4 4 -4 6 -14 8 -23 5 -11 -4 -14 -2 -9 5 8 13 -19
60 -46 80 -9 7 -15 19 -12 26 3 7 -1 20 -9 28 -8 8 -18 24 -21 36 -4 12 -12
22 -17 22 -6 0 -7 5 -4 10 3 6 2 10 -2 10 -5 0 -18 7 -29 16 -10 8 -12 12 -4
8 8 -3 4 5 -10 18 -14 14 -28 24 -32 21 -4 -2 -15 4 -26 15 -10 10 -40 28 -66
40 -27 13 -65 33 -85 46 -20 13 -38 25 -41 26 -3 2 -15 -2 -28 -9 -23 -12 -24
-26 -2 -101 7 -23 7 -36 0 -38 -5 -2 -3 -10 5 -19 11 -10 14 -30 11 -69 -2
-30 0 -54 4 -54 13 0 19 -40 7 -48 -19 -12 -54 -57 -37 -47 13 7 13 6 2 -7
-10 -13 -10 -17 0 -22 7 -3 -2 -5 -19 -3 -18 2 -33 0 -33 -5 0 -4 -8 -8 -19
-8 -22 0 -73 38 -66 50 3 4 -2 11 -11 14 -9 4 -14 9 -11 13 4 3 2 12 -4 19 -7
8 -7 14 0 19 7 4 3 14 -9 28 -11 12 -18 27 -16 34 3 7 1 13 -5 13 -6 0 -7 5
-4 10 3 6 2 10 -4 10 -12 0 -41 59 -44 88 0 11 -5 18 -10 15 -5 -3 -13 1 -18
8 -5 8 -3 17 4 21 8 5 4 8 -10 8 -16 0 -20 5 -16 20 3 12 -2 29 -11 39 -9 10
-14 20 -11 22 2 3 -5 10 -15 17 -11 7 -20 8 -20 3 0 -5 6 -12 13 -14 9 -4 9
-6 -1 -6 -22 -2 -26 29 -6 45 17 12 17 13 2 8 -12 -4 -18 -1 -18 10 0 9 -5 16
-11 16 -5 0 -7 6 -3 13 6 9 4 9 -8 -1 -13 -10 -18 -10 -24 -1 -4 8 -3 9 4 5 7
-4 12 -3 12 3 0 5 -5 13 -10 16 -6 4 -7 11 -4 17 4 5 -4 4 -17 -3 -22 -11 -23
-11 -10 5 20 23 -3 63 -40 71 -18 4 -33 17 -41 36 -7 16 -16 29 -20 29 -4 0
-5 6 -2 13 3 8 -2 20 -10 27 -9 7 -13 17 -9 23 4 6 0 8 -9 4 -9 -3 -24 3 -34
14 -9 10 -14 19 -10 19 4 0 0 7 -9 16 -12 13 -13 19 -4 24 8 5 4 10 -12 16
-13 4 -27 7 -31 6 -5 -1 -8 2 -8 8 0 5 -7 10 -15 10 -8 0 -15 4 -15 10 0 5
-10 19 -22 30 -20 19 -21 20 -4 14 19 -7 18 -5 -3 24 -12 18 -25 32 -29 32 -3
0 -1 -5 6 -12 15 -15 16 -28 2 -28 -5 0 -12 11 -16 25 -3 14 -11 25 -18 25 -6
0 -5 4 3 9 12 8 10 12 -10 21 -41 19 -158 -12 -287 -76 -101 -49 -112 -57
-100 -72 11 -13 11 -15 -2 -7 -12 6 -13 5 -2 -6 14 -16 16 -33 2 -24 -13 8
-13 -11 1 -36 5 -11 15 -16 21 -13 6 4 8 3 4 -4 -3 -6 1 -17 9 -25 8 -9 15
-21 15 -27 0 -6 3 -9 8 -7 4 3 8 -5 8 -18 2 -25 38 -67 50 -57 4 4 4 1 0 -6
-5 -8 -1 -21 7 -30 8 -9 21 -37 28 -62 7 -25 16 -49 21 -55 10 -11 11 -25 1
-24 -22 4 -37 -2 -26 -9 18 -12 28 -62 12 -62 -11 0 -11 -3 1 -10 12 -8 10
-10 -10 -10 -19 0 -22 -3 -11 -9 11 -7 12 -15 5 -32 -7 -15 -13 -19 -18 -11
-4 7 -2 12 4 12 6 0 8 5 5 10 -12 19 -23 10 -20 -15 1 -14 -2 -28 -8 -32 -6
-3 -7 -2 -4 4 4 5 -13 32 -37 59 -35 38 -50 48 -77 49 -46 2 -69 14 -62 31 3
8 1 14 -5 14 -6 0 -12 -5 -14 -12 -3 -8 -7 -6 -11 5 -3 9 -3 16 1 16 32 -5 2
34 -34 45 -12 4 -30 16 -40 28 l-19 21 28 -18 c15 -10 30 -15 33 -12 3 3 -17
16 -45 29 -28 12 -51 28 -51 34 0 7 -7 14 -15 18 -8 3 -15 12 -15 21 0 12 -4
13 -19 6 -16 -9 -17 -7 -13 14 2 15 0 25 -7 25 -7 0 -10 -4 -6 -9 3 -5 1 -12
-4 -15 -10 -7 -26 31 -23 52 2 6 -2 12 -8 12 -6 0 -8 -4 -5 -10 3 -5 -3 -10
-14 -10 -24 0 -27 10 -8 29 6 8 7 11 1 8 -6 -3 -18 10 -28 29 -14 30 -19 34
-32 24 -8 -7 -17 -10 -21 -6 -3 3 -1 6 5 6 7 0 12 5 12 11 0 5 -4 8 -8 5 -5
-3 -16 4 -25 15 -10 11 -22 17 -27 14 -6 -3 -10 0 -10 9 0 8 -16 24 -36 36
-19 12 -33 25 -30 27 9 9 -41 43 -63 43 -14 0 -21 6 -21 19 0 20 -25 35 -41
25 -5 -3 -9 0 -9 5 0 6 6 11 13 11 7 1 5 6 -5 14 -10 7 -14 17 -10 21 4 5 1 5
-5 1 -7 -4 -22 0 -34 8 -12 8 -29 12 -38 9 -9 -4 -13 -2 -8 2 9 11 -22 45 -41
45 -9 0 -12 6 -8 16 5 13 4 14 -7 6 -10 -8 -17 -8 -24 -1 -8 8 -17 8 -32 0
-17 -10 -20 -9 -15 4 4 9 0 15 -9 15 -8 0 -18 -6 -20 -12 -3 -7 -6 -8 -6 -2
-1 14 -96 6 -139 -12 -18 -7 -38 -11 -46 -8 -7 3 -19 -2 -26 -11 -10 -12 -16
-13 -27 -3 -11 9 -13 8 -11 -2 2 -8 -1 -14 -7 -15 -5 0 -20 -7 -33 -14 -21
-11 -22 -14 -9 -29 8 -9 28 -40 44 -69 15 -28 42 -66 58 -85 17 -18 40 -49 53
-69 12 -19 32 -47 44 -61 39 -43 56 -66 69 -90 13 -24 94 -133 117 -157 7 -7
11 -20 8 -27 -3 -8 1 -14 9 -14 8 0 15 -4 15 -10 0 -5 -8 -10 -17 -10 -14 0
-18 -8 -18 -34 0 -19 3 -32 6 -30 4 2 9 -5 12 -15 4 -17 0 -19 -29 -18 -23 1
-33 6 -29 15 3 7 1 11 -4 8 -5 -3 -19 3 -31 14 -13 11 -27 21 -32 21 -38 6
-108 41 -101 52 4 6 -2 8 -16 4 -17 -4 -20 -3 -12 7 8 10 1 16 -29 26 -22 7
-40 17 -40 23 0 5 -7 7 -15 3 -8 -3 -15 -1 -15 5 0 6 -4 8 -9 5 -5 -3 -33 5
-62 18 -63 27 -146 49 -158 41 -5 -2 -14 1 -20 9 -7 8 -20 13 -29 11 -9 -1
-23 2 -30 8 -7 5 -15 7 -19 4 -3 -4 -11 -3 -17 2 -6 5 -26 12 -45 14 -19 3
-37 9 -40 14 -8 11 -46 17 -123 17 -36 1 -64 4 -62 8 3 4 -2 10 -9 15 -21 13
-29 43 -11 43 8 0 12 -4 9 -10 -3 -5 -1 -10 5 -10 15 0 2 41 -19 57 -21 16
-44 16 -60 1 -10 -11 -11 -9 -5 6 5 13 4 17 -4 12 -7 -4 -12 -2 -12 5 0 8 -4
8 -13 1 -15 -13 -43 1 -33 16 3 6 -1 18 -10 26 -13 14 -13 16 -1 16 9 0 17 -4
19 -10 2 -5 9 -6 17 -1 12 8 12 12 -2 25 -10 10 -18 12 -22 6 -3 -5 -11 -10
-16 -10 -6 0 -7 5 -4 10 3 6 0 10 -7 10 -8 0 -6 5 5 11 9 6 15 14 12 20 -4 5
1 17 11 26 11 11 13 18 5 21 -18 6 -12 22 8 22 11 0 23 6 28 13 11 17 12 77 1
77 -5 0 -2 10 6 22 23 33 20 38 -14 22 -16 -9 -34 -13 -40 -9 -13 8 -13 45 0
45 6 0 10 9 10 19 0 10 7 22 16 25 19 7 15 15 -12 20 -11 3 -27 7 -36 11 -11
4 -18 3 -18 -4z"/>
<path d="M3360 9673 c-8 -3 -23 -12 -32 -20 -9 -8 -22 -12 -27 -8 -6 3 -11 1
-11 -4 0 -6 -13 -11 -29 -11 -17 0 -36 -8 -43 -17 -9 -13 -26 -18 -58 -17 -25
0 -54 -4 -65 -9 -28 -14 -111 -102 -143 -151 -14 -23 -34 -51 -45 -62 -16 -19
-17 -25 -5 -43 10 -17 10 -22 -4 -33 -9 -7 -19 -30 -22 -50 -4 -21 -11 -38
-16 -38 -6 0 -10 -9 -10 -19 0 -11 -4 -23 -10 -26 -5 -3 -10 -23 -10 -43 0
-24 -6 -42 -18 -50 -13 -10 -17 -27 -16 -77 0 -36 -3 -65 -7 -65 -5 0 -6 -6
-3 -14 3 -9 -3 -17 -16 -21 -12 -4 -28 -23 -36 -42 -18 -42 -46 -41 -51 2 -2
16 -9 35 -14 41 -13 16 -19 123 -7 130 13 8 5 66 -9 71 -15 6 -18 33 -3 33 5
0 6 7 3 17 -4 10 -2 14 4 10 6 -4 7 10 2 41 -4 26 -4 52 -1 57 4 6 7 18 8 28
3 30 4 32 15 17 9 -13 10 -13 6 2 -3 9 -1 19 6 22 9 3 8 5 -1 5 -7 1 -23 -11
-36 -25 -22 -26 -23 -26 -41 -8 -21 21 -24 21 -37 2 -8 -10 -9 -10 -5 2 2 8
13 16 25 18 12 2 22 10 22 19 0 9 -6 13 -15 9 -8 -3 -15 -1 -15 3 0 15 27 20
41 8 11 -10 11 -9 1 4 -12 16 -6 59 9 59 5 0 9 7 9 16 0 10 5 14 16 10 9 -3
12 -2 9 5 -4 6 -13 8 -21 5 -19 -7 -18 12 1 30 8 9 15 21 15 27 0 9 -2 9 -8 1
-21 -31 -109 -46 -97 -16 3 8 5 16 5 18 0 3 4 2 10 -1 5 -3 7 0 5 7 -6 16 44
87 61 88 17 0 37 27 26 34 -5 3 -26 -5 -46 -19 -20 -14 -40 -25 -43 -25 -3 0
-28 -16 -54 -35 -27 -19 -54 -35 -60 -35 -5 0 -7 -4 -4 -10 3 -6 -1 -7 -10 -4
-9 4 -23 -2 -33 -12 -9 -11 -26 -26 -36 -34 -18 -13 -19 -13 -11 0 12 20 -85
-65 -102 -90 -8 -11 -23 -20 -34 -20 -11 0 -22 -7 -25 -15 -4 -8 -15 -15 -25
-15 -12 0 -21 -10 -25 -27 -4 -16 -16 -43 -26 -61 -18 -32 -25 -59 -9 -33 5 8
11 9 15 3 3 -6 -2 -13 -13 -17 -11 -3 -22 -12 -25 -20 -3 -8 -13 -15 -23 -15
-13 0 -14 -3 -5 -12 9 -9 8 -16 -5 -30 -12 -13 -13 -18 -3 -18 7 0 3 -9 -11
-21 -41 -36 -59 -70 -47 -92 12 -22 -9 -49 -39 -52 -10 0 -24 -4 -31 -9 -21
-13 -35 5 -15 21 10 8 13 12 7 9 -7 -3 -15 1 -18 10 -4 9 -2 13 5 8 7 -4 10
-1 7 7 -3 8 -10 14 -16 14 -19 0 -27 16 -12 25 13 8 12 10 -2 10 -15 0 -16 4
-8 25 8 20 6 25 -6 25 -8 0 -12 5 -9 10 4 6 9 8 13 6 4 -2 8 9 9 25 1 16 -2
29 -8 29 -6 0 -7 -6 -3 -12 5 -10 4 -10 -6 -1 -9 9 -10 16 -3 25 6 7 9 22 7
32 -3 23 13 57 32 69 8 4 14 11 14 15 0 12 -58 13 -65 2 -10 -16 -43 -12 -54
7 -8 14 -12 15 -25 4 -12 -10 -16 -10 -16 -2 0 8 -8 10 -22 5 -12 -3 -37 -8
-56 -10 -29 -3 -32 -1 -21 12 10 12 14 12 21 2 5 -9 7 -5 6 12 -2 16 2 24 10
22 18 -3 15 1 -19 38 -25 25 -33 29 -40 19 -5 -8 -9 -17 -9 -21 0 -5 -5 -8
-10 -8 -12 0 -50 -37 -44 -43 9 -8 -42 -70 -64 -78 -17 -7 -21 -6 -15 4 12 19
12 37 1 37 -5 0 -7 10 -4 23 3 12 -7 -5 -23 -39 -16 -34 -35 -64 -44 -67 -9
-3 -13 -14 -10 -29 3 -17 -8 -35 -43 -70 -25 -27 -44 -48 -40 -48 6 0 -38 -85
-55 -106 -9 -11 -8 -14 2 -14 9 0 10 -3 4 -8 -6 -4 -19 -24 -30 -44 -10 -20
-22 -35 -25 -33 -3 2 -12 -1 -20 -7 -12 -8 -12 -9 2 -4 28 9 21 -13 -8 -24
-31 -12 -37 -12 -30 -1 12 19 -6 41 -29 37 -14 -3 -26 1 -29 9 -8 21 6 26 21
7 8 -9 3 4 -11 29 -21 36 -23 48 -13 59 10 12 9 12 -5 1 -10 -7 -16 -17 -13
-21 3 -5 1 -11 -5 -15 -5 -3 -10 -2 -10 4 0 5 -3 17 -7 27 -5 13 -3 15 8 9 11
-6 12 -5 2 5 -9 9 -16 10 -25 3 -15 -12 -46 -9 -61 6 -8 8 -4 11 12 11 14 0
20 -4 15 -12 -4 -7 -3 -8 5 -4 21 13 6 29 -30 31 -43 2 -120 -33 -127 -57 -2
-10 -7 -16 -11 -14 -3 2 -12 -2 -19 -10 -7 -8 -10 -14 -7 -14 2 0 -5 -11 -16
-24 -12 -14 -28 -22 -35 -19 -10 4 -12 0 -8 -11 5 -12 2 -15 -10 -10 -11 4
-16 1 -16 -11 0 -15 -2 -16 -17 -4 -11 10 -14 10 -9 2 4 -7 3 -13 -2 -13 -19
0 -87 -166 -73 -175 10 -6 -11 -75 -22 -75 -5 0 -5 -4 -2 -10 3 -5 2 -10 -4
-10 -5 0 -12 6 -15 13 -4 10 -2 -15 7 -83 2 -8 6 -20 10 -27 4 -6 3 -14 -3
-18 -5 -3 -10 -17 -10 -31 0 -13 -4 -24 -8 -24 -4 0 -9 -9 -10 -20 -1 -11 -3
-29 -4 -40 -1 -11 -6 -20 -10 -20 -8 0 -12 52 -7 110 1 19 3 45 3 58 1 12 8
22 16 23 8 0 10 3 4 5 -6 2 -9 18 -6 34 3 18 -2 35 -12 45 -9 9 -16 12 -16 6
0 -6 -8 -11 -19 -11 -19 0 -36 46 -20 56 4 2 6 11 2 19 -3 8 0 15 7 15 7 0 10
6 7 14 -3 7 -2 18 1 22 4 5 -1 1 -10 -9 -13 -14 -18 -15 -18 -6 0 8 -12 -4
-28 -27 -20 -31 -32 -40 -49 -38 -13 2 -23 1 -23 -4 0 -4 -16 -25 -36 -47 -31
-35 -73 -109 -78 -140 -1 -6 -12 -28 -24 -48 -12 -21 -22 -44 -22 -51 0 -7 -9
-21 -20 -31 -16 -14 -17 -20 -8 -27 10 -6 10 -8 -1 -8 -8 0 -11 -7 -8 -20 3
-11 1 -20 -4 -20 -5 0 -9 -9 -9 -20 0 -13 -7 -20 -20 -20 -12 0 -20 -6 -18
-12 3 -19 -12 -58 -22 -58 -5 0 -12 5 -15 10 -9 15 -25 12 -25 -6 0 -8 4 -13
9 -10 11 7 8 -21 -4 -31 -4 -4 -5 -2 -1 5 4 6 3 12 -3 12 -5 0 -12 -6 -14 -12
-4 -10 -7 -10 -15 0 -5 7 -16 10 -27 6 -14 -6 -16 -4 -10 6 5 9 4 11 -3 6 -7
-4 -12 -16 -12 -28 0 -14 -5 -18 -15 -14 -8 3 -15 1 -15 -3 0 -5 6 -11 13 -14
9 -3 9 -7 -1 -19 -9 -12 -12 -351 -10 -1644 l3 -1629 40 -22 c22 -12 46 -22
54 -22 8 -1 24 -10 35 -21 30 -27 207 -122 296 -158 106 -42 457 -172 475
-176 36 -7 113 -41 109 -48 -3 -5 6 -7 21 -4 15 3 38 1 51 -4 13 -5 68 -19
122 -30 53 -10 101 -25 107 -32 9 -12 21 -17 52 -22 7 -1 20 -10 31 -19 10 -9
22 -14 27 -10 4 5 5 0 2 -10 -5 -14 -3 -16 12 -8 10 6 21 8 24 4 4 -3 14 -7
24 -8 19 -1 68 -13 93 -22 8 -3 33 -7 54 -8 21 -2 42 -9 46 -16 4 -6 12 -9 18
-5 6 3 18 3 26 0 20 -8 51 -64 36 -64 -5 0 -10 7 -10 16 0 10 -6 14 -14 11
-10 -4 -13 -1 -9 9 3 9 -2 14 -15 14 -34 0 -35 -18 -2 -35 16 -8 30 -18 30
-21 0 -3 -5 -2 -11 2 -6 3 -15 1 -19 -7 -7 -10 -11 -10 -24 0 -13 11 -16 11
-16 -3 0 -9 -7 -16 -16 -16 -8 0 -22 -7 -31 -15 -8 -8 -19 -13 -24 -10 -5 4
-9 1 -9 -5 0 -7 -5 -8 -17 -1 -12 6 -21 5 -31 -7 -9 -12 -11 -12 -6 -2 5 10 0
9 -14 -4 -28 -24 -28 -29 -1 -21 15 5 19 4 15 -4 -4 -6 -14 -11 -22 -11 -8 0
-14 -7 -14 -15 0 -8 -6 -15 -14 -15 -8 0 -17 -6 -19 -12 -4 -10 -6 -10 -6 0
-1 7 -5 11 -10 7 -5 -3 -12 -1 -16 5 -4 6 6 10 23 10 18 0 29 5 29 15 0 8 -4
12 -8 9 -4 -2 -10 2 -12 8 -3 8 -6 6 -6 -5 -1 -10 -6 -15 -11 -12 -6 3 -17 -1
-26 -9 -10 -10 -11 -16 -4 -16 7 0 10 -8 7 -20 -3 -11 -1 -20 3 -20 4 0 6 -9
3 -20 -4 -14 0 -20 11 -20 9 0 16 5 16 10 0 6 -4 10 -8 10 -4 0 -8 10 -9 22
l-1 23 10 -22 c6 -13 18 -23 27 -24 10 0 12 -2 3 -6 -6 -2 -9 -10 -6 -15 4 -6
2 -8 -4 -4 -6 3 -17 0 -25 -9 -13 -13 -17 -13 -27 0 -7 8 -16 12 -21 9 -12 -7
13 -44 26 -38 5 3 1 -2 -9 -10 -30 -24 1 -19 37 6 18 12 27 15 20 8 -10 -11
-9 -16 5 -27 9 -8 11 -12 5 -8 -7 3 -13 2 -13 -4 0 -5 -9 -13 -20 -16 -27 -9
-14 -27 13 -20 19 5 19 4 -3 -9 -16 -9 -27 -11 -31 -4 -4 7 -9 6 -13 -1 -4 -6
-1 -12 6 -13 7 0 18 -2 23 -2 6 -1 16 -5 22 -9 8 -5 13 -3 13 5 0 10 2 10 9
-1 5 -7 14 -10 20 -7 6 4 11 2 11 -5 0 -8 4 -8 13 -1 15 12 57 -18 57 -41 0
-9 6 -18 13 -20 8 -4 9 -6 0 -6 -6 -1 -20 7 -29 17 -15 14 -17 14 -12 1 3 -9
2 -22 -3 -30 -7 -11 -9 -10 -9 6 -1 18 -2 17 -11 -4 -6 -15 -14 -21 -25 -17
-8 3 -13 2 -10 -2 3 -5 -1 -20 -9 -35 -7 -15 -11 -26 -7 -24 8 2 12 -7 12 -28
0 -8 -7 -15 -16 -15 -9 0 -12 5 -8 12 5 7 3 8 -5 4 -7 -5 -10 -15 -7 -23 5
-11 1 -13 -16 -7 -20 6 -21 5 -9 -10 12 -14 16 -15 30 -2 24 21 59 28 78 17
10 -6 14 -11 9 -11 -5 0 1 -11 14 -25 l23 -24 -26 -10 c-14 -5 -28 -15 -32
-21 -5 -8 3 -7 21 2 36 17 66 17 72 0 2 -7 -2 -10 -12 -6 -12 4 -15 2 -10 -9
3 -9 13 -13 25 -10 10 3 16 10 12 16 -3 6 -1 7 5 3 18 -11 15 -15 -30 -33 -23
-9 -37 -18 -30 -21 13 -4 -5 -52 -21 -52 -5 0 -4 -7 3 -15 7 -8 17 -12 22 -9
5 3 7 8 4 11 -3 3 1 15 9 27 10 14 27 21 53 22 54 3 54 3 47 14 -3 6 -1 10 6
10 7 0 21 7 31 17 17 15 18 15 18 0 0 -10 7 -17 16 -17 8 0 12 4 9 10 -3 6 1
7 9 4 9 -3 16 -10 16 -14 0 -15 -28 -30 -46 -24 -16 5 -16 4 -4 -5 13 -9 13
-11 -2 -12 -32 -3 -36 -4 -45 -13 -5 -5 -3 -6 5 -2 8 5 12 0 12 -16 0 -19 -2
-20 -11 -8 -9 12 -10 12 -7 1 6 -21 28 -26 28 -7 0 16 38 42 48 32 3 -3 0 -6
-6 -6 -6 0 -9 -7 -6 -15 4 -8 10 -15 16 -15 5 0 7 3 5 7 -3 5 6 16 19 26 19
14 23 15 18 2 -3 -8 -10 -15 -14 -15 -4 0 -11 -7 -14 -16 -4 -12 -2 -15 9 -10
13 4 14 2 5 -14 -11 -20 -21 -27 -19 -12 3 20 -2 25 -12 12 -8 -11 -12 -12
-16 -2 -7 17 -23 5 -17 -13 6 -15 -31 -40 -45 -31 -5 3 -11 -1 -15 -9 -3 -8
-11 -15 -18 -15 -9 0 -9 3 -2 8 6 4 13 15 17 24 5 14 1 18 -19 18 -23 0 -26
-4 -22 -25 7 -32 -12 -58 -35 -49 -9 3 -17 10 -17 16 0 5 -5 6 -11 2 -7 -4 -7
1 1 16 9 17 9 25 -1 34 -9 8 -11 7 -6 -6 4 -11 -1 -19 -14 -23 -20 -7 -20 -7
0 -25 26 -22 27 -30 1 -25 -11 2 -20 0 -20 -5 0 -5 -11 -12 -25 -16 -14 -3
-25 -10 -25 -15 0 -4 -9 -6 -20 -4 -11 2 -18 0 -15 -5 3 -4 -7 -18 -22 -30
-23 -18 -25 -23 -13 -31 12 -8 9 -10 -10 -7 -19 3 -34 -4 -55 -26 -19 -18 -23
-27 -12 -23 9 3 17 2 17 -3 0 -6 -6 -10 -12 -10 -7 0 -2 -9 11 -19 15 -11 21
-23 16 -31 -5 -8 -3 -11 6 -8 8 3 13 13 11 23 -2 11 1 15 9 9 22 -13 60 -11
55 3 -4 9 5 13 30 13 29 0 35 3 30 16 -5 13 -2 15 13 11 14 -3 18 -1 14 9 -3
8 -13 14 -22 15 -12 0 -12 2 4 9 26 11 44 12 26 1 -11 -7 -11 -10 0 -17 7 -4
14 -3 17 4 2 7 9 9 15 5 7 -4 8 0 4 11 -4 10 -3 15 3 11 6 -3 10 -1 10 5 0 8
6 8 21 0 18 -10 19 -9 11 7 -9 15 -7 19 9 20 11 1 17 -2 14 -8 -4 -5 -2 -9 4
-9 5 0 13 5 16 10 4 6 11 8 16 5 5 -4 9 -1 9 6 0 7 10 9 24 7 19 -4 23 -1 20
16 -3 12 -2 15 2 9 4 -9 11 -10 24 -3 13 7 22 4 36 -11 13 -15 19 -16 26 -7 6
10 8 10 8 -1 0 -10 8 -7 25 9 14 13 28 20 32 16 4 -4 1 -12 -7 -17 -11 -8 -10
-9 8 -4 13 4 22 2 22 -4 0 -6 -3 -10 -7 -10 -5 1 -18 1 -31 0 -21 -1 -22 -2
-8 -17 23 -22 21 -26 -23 -54 -22 -13 -37 -29 -33 -34 3 -6 -2 -5 -11 3 -15
12 -17 11 -17 -3 0 -10 -4 -15 -9 -11 -5 3 -17 -3 -27 -12 -10 -10 -19 -17
-21 -15 -2 1 -15 2 -30 2 -26 -1 -26 -2 -10 -14 16 -12 15 -14 -8 -14 -19 0
-25 5 -21 15 3 8 1 11 -5 8 -5 -4 -9 -16 -7 -28 2 -18 -2 -22 -24 -21 -16 0
-28 -5 -28 -11 0 -15 -48 -60 -56 -52 -9 9 9 32 25 32 8 0 16 6 19 13 2 6 -1
12 -8 12 -6 0 -8 -5 -4 -11 4 -8 0 -9 -15 -4 -14 4 -21 2 -21 -6 0 -7 -3 -9
-7 -6 -3 4 -12 2 -19 -4 -10 -8 -11 -16 -4 -30 9 -15 8 -17 -7 -12 -16 6 -16
5 -4 -10 20 -26 2 -20 -20 6 l-19 22 10 -27 c6 -18 6 -29 0 -33 -10 -6 -14 2
-11 19 1 5 -5 3 -14 -4 -13 -11 -15 -10 -9 4 8 21 -14 21 -44 0 -12 -8 -27
-12 -32 -9 -6 3 -10 0 -10 -8 0 -7 -12 -19 -26 -25 -16 -8 -22 -17 -18 -25 6
-9 5 -9 -7 0 -15 12 -69 6 -69 -8 0 -5 7 -6 15 -3 8 4 15 2 15 -3 0 -5 -6 -10
-12 -10 -7 -1 -30 -4 -51 -7 -34 -5 -36 -4 -27 14 15 28 12 32 -8 12 -10 -9
-16 -25 -14 -34 2 -10 -1 -18 -7 -18 -6 0 -11 -10 -11 -21 0 -17 3 -19 14 -10
10 8 16 9 21 1 10 -16 23 -12 21 6 0 9 6 19 14 21 13 4 13 3 0 -6 -8 -5 -11
-13 -7 -17 3 -4 13 -1 21 5 9 8 16 8 20 2 4 -6 13 -8 20 -5 8 3 16 -3 19 -15
4 -16 12 -19 41 -17 38 3 77 -16 62 -31 -5 -4 -11 -2 -13 5 -3 6 -14 12 -26
12 -21 -1 -21 -1 -3 -12 24 -13 68 -20 61 -8 -3 4 8 10 23 12 15 3 34 8 43 12
10 5 19 -1 28 -16 6 -13 9 -15 7 -6 -3 10 -1 18 4 18 14 0 13 -37 -1 -42 -6
-2 -12 -16 -12 -30 -2 -25 -3 -26 -21 -10 -11 9 -16 12 -13 5 4 -6 1 -14 -5
-17 -10 -5 -10 -7 0 -12 10 -5 10 -9 0 -22 -11 -13 -11 -14 1 -8 8 5 16 3 22
-5 6 -11 11 -11 21 -1 9 9 9 12 -5 12 -9 0 -17 5 -17 10 0 13 6 13 31 0 10 -6
19 -19 19 -30 0 -10 5 -22 12 -26 7 -4 8 -3 4 5 -13 20 24 25 40 5 9 -11 13
-13 9 -6 -4 7 -1 11 6 10 7 -2 13 2 14 9 0 19 12 25 19 8 3 -9 -1 -18 -9 -21
-17 -7 -21 -34 -5 -34 6 0 10 7 10 15 0 7 6 18 13 22 6 4 19 17 27 28 11 16
11 17 0 8 -21 -19 -32 -16 -19 5 11 18 39 26 39 11 0 -4 11 -6 24 -5 13 0 24
3 23 6 -1 3 8 16 20 29 12 13 20 28 17 33 -7 11 47 -1 60 -13 15 -14 -1 -22
-21 -10 -17 8 -19 6 -19 -12 1 -16 -4 -21 -18 -19 -10 2 -15 -1 -12 -6 3 -6
-1 -13 -10 -16 -8 -3 -12 -10 -9 -16 3 -5 -1 -10 -9 -10 -9 0 -16 -5 -16 -11
0 -5 -4 -7 -10 -4 -5 3 -7 0 -4 -8 3 -8 -2 -17 -11 -21 -9 -3 -14 -10 -10 -15
3 -6 12 -8 19 -5 8 3 17 0 21 -5 3 -6 11 -9 16 -6 5 4 9 -1 9 -9 0 -8 -5 -18
-11 -21 -6 -4 -8 -13 -5 -21 3 -8 0 -14 -7 -14 -9 0 -9 -2 -1 -8 20 -13 6 -63
-25 -93 -28 -26 -30 -33 -9 -31 3 1 12 -5 18 -13 9 -11 9 -15 1 -15 -6 0 -11
4 -11 9 0 4 -12 6 -26 3 -18 -3 -22 -7 -13 -13 7 -4 17 -5 23 -2 5 3 6 1 2 -5
-4 -7 -16 -12 -26 -12 -13 0 -18 -5 -14 -15 4 -8 0 -23 -7 -33 -13 -15 -12
-16 4 -3 9 7 17 19 17 25 0 7 9 12 21 13 20 2 20 1 4 -17 -9 -10 -14 -24 -10
-30 3 -6 3 -10 -2 -9 -19 3 -31 -2 -37 -17 -5 -13 -2 -15 14 -11 22 6 23 -12
1 -29 -16 -13 -5 -38 12 -28 8 5 8 3 0 -7 -7 -7 -13 -21 -13 -30 0 -10 -7 -25
-16 -33 -8 -9 -13 -16 -9 -16 3 0 1 -10 -6 -21 -6 -12 -12 -31 -14 -43 -1 -11
-6 -34 -10 -50 -6 -21 -5 -27 4 -22 8 5 8 0 2 -17 -12 -30 6 -97 26 -97 19 0
16 -28 -4 -33 -17 -4 -17 -5 0 -6 11 -1 23 10 31 29 7 17 15 27 19 23 4 -3 7
3 7 15 0 11 7 25 16 30 8 5 16 16 18 26 1 10 9 22 17 26 7 5 14 15 15 22 0 7
2 19 2 26 1 7 16 19 33 26 29 12 30 14 14 29 -14 14 -14 17 -2 17 9 0 18 6 20
13 4 9 6 9 6 0 2 -23 18 -14 17 10 -1 15 4 22 17 21 13 -1 15 1 8 10 -13 15 5
37 24 30 7 -3 16 -1 20 5 3 7 0 8 -9 5 -17 -6 -22 7 -8 20 4 4 8 12 8 17 3 22
5 23 14 9 7 -11 11 -9 19 13 7 18 15 25 23 21 8 -5 9 -2 5 9 -7 19 1 49 12 42
4 -2 7 11 6 30 -1 34 28 74 40 55 3 -5 -4 -12 -15 -15 -18 -6 -19 -9 -8 -22 7
-9 12 -24 10 -35 -2 -10 2 -18 7 -18 6 0 12 9 12 20 1 11 2 23 4 28 1 4 5 19
9 33 4 14 8 33 10 42 1 9 14 25 28 37 24 18 26 18 24 3 -2 -10 -8 -19 -14 -19
-7 -1 -17 -2 -24 -3 -6 0 -9 -4 -6 -7 4 -3 2 -19 -2 -35 -7 -22 -6 -29 3 -26
7 2 15 17 18 33 4 16 7 23 8 15 1 -18 31 5 31 25 0 8 15 27 32 43 24 22 36 27
46 19 9 -8 11 -7 7 3 -6 16 47 53 60 41 5 -4 5 1 2 10 -4 12 -2 15 8 12 7 -3
25 2 38 11 36 23 45 1 13 -32 -14 -14 -23 -29 -21 -34 3 -4 0 -11 -6 -15 -7
-4 -9 -3 -5 4 3 6 1 14 -5 18 -8 4 -9 3 -5 -4 4 -7 2 -12 -5 -12 -7 0 -4 -6 7
-14 15 -12 17 -18 7 -33 -6 -10 -16 -17 -22 -15 -9 2 -9 -3 -2 -17 6 -10 7
-22 3 -26 -4 -5 1 -5 10 -2 10 3 20 2 23 -3 4 -6 0 -11 -7 -12 -7 0 -17 -2
-23 -2 -5 -1 -17 -6 -25 -11 -13 -8 -13 -7 -1 8 16 20 12 30 -7 18 -14 -8 -25
-81 -13 -81 5 0 16 9 26 20 21 23 32 25 49 7 13 -13 13 -44 0 -55 -4 -4 -4 2
-1 13 7 20 7 20 -8 1 -11 -14 -12 -23 -4 -33 8 -9 8 -13 0 -13 -6 0 -11 4 -11
8 0 5 -7 9 -15 9 -20 0 -14 -18 11 -31 10 -6 21 -12 23 -13 2 -2 -3 -11 -11
-20 -8 -10 -18 -27 -22 -37 -9 -25 -18 -14 -21 23 -2 23 1 28 14 24 14 -4 14
-3 1 6 -24 17 -53 14 -46 -6 4 -9 1 -20 -5 -24 -6 -4 -8 -12 -4 -18 5 -9 11
-7 21 6 12 16 13 13 8 -22 -7 -65 -13 -77 -36 -69 -18 5 -19 4 -7 -18 10 -20
10 -21 -2 -11 -12 9 -14 5 -17 -24 -2 -35 -15 -55 -42 -66 -9 -3 -10 -6 -2 -6
6 -1 12 -6 12 -12 0 -7 -9 -9 -21 -6 -16 4 -18 3 -9 -8 8 -9 8 -14 -1 -17 -6
-2 -12 -16 -12 -31 -1 -17 -7 -25 -14 -22 -13 4 -17 -6 -14 -37 1 -9 -7 -23
-18 -30 -12 -7 -21 -16 -21 -21 0 -4 5 -5 10 -2 6 3 10 2 10 -4 0 -5 -9 -12
-19 -16 -22 -7 -38 -44 -24 -54 20 -12 31 -46 22 -68 -5 -13 -11 -23 -13 -23
-3 0 -3 6 0 13 3 8 -3 13 -16 13 -22 0 -26 -11 -9 -21 6 -4 8 -13 5 -21 -3 -8
0 -14 7 -14 7 -1 -1 -8 -16 -16 -15 -8 -25 -19 -22 -25 4 -5 11 -6 17 -3 7 4
8 2 4 -4 -4 -7 -12 -12 -17 -12 -13 0 -33 -20 -42 -42 -8 -21 22 -25 41 -6 9
9 12 9 12 -3 0 -12 2 -12 10 1 5 8 10 20 10 25 0 6 -5 3 -10 -5 -5 -8 -10 -10
-10 -4 0 6 7 17 15 24 9 7 14 19 11 25 -5 13 12 35 26 35 4 0 8 -5 8 -11 0 -5
-4 -8 -9 -4 -6 3 -8 -12 -6 -35 2 -22 -1 -40 -6 -40 -14 0 -5 -50 11 -60 8 -5
17 -7 21 -4 4 2 2 -7 -4 -21 -14 -29 -31 -34 -23 -7 4 12 1 19 -8 19 -11 0
-12 -6 -5 -24 10 -28 1 -62 -12 -41 -5 7 -9 9 -9 3 -6 -76 -5 -97 4 -103 6 -3
0 -9 -14 -13 -24 -7 -24 -7 5 -8 29 -1 29 -1 8 -16 -14 -10 -20 -24 -19 -40 2
-14 -7 -39 -20 -57 -16 -21 -20 -34 -13 -39 13 -8 -5 -49 -22 -49 -6 0 -9 -6
-6 -14 3 -8 1 -16 -5 -18 -6 -2 -12 -11 -14 -19 -1 -7 -6 -23 -10 -33 -5 -13
-4 -17 3 -13 6 4 16 0 23 -8 11 -13 9 -15 -11 -13 -21 3 -24 -1 -25 -32 -1
-33 -1 -34 14 -12 8 12 20 22 27 22 7 0 16 12 19 26 5 18 12 24 22 20 9 -3 12
-1 9 4 -3 6 -2 10 4 10 5 0 16 12 23 28 7 15 19 28 26 28 6 1 17 2 22 3 6 0
10 6 10 12 0 8 -4 8 -14 0 -11 -9 -15 -8 -20 5 -8 22 -8 26 3 19 5 -3 12 -1
16 5 4 6 11 8 16 4 5 -3 8 0 7 8 -2 7 -10 16 -18 20 -10 4 -6 7 13 7 15 1 27
6 27 11 0 6 10 10 22 10 21 0 21 1 5 17 -16 16 -19 16 -27 3 -5 -8 -10 -10
-10 -4 0 6 12 20 26 30 64 47 106 92 98 105 -6 11 -5 12 7 3 10 -8 19 -5 35
12 12 13 19 26 15 29 -3 4 6 1 21 -6 23 -10 26 -15 15 -27 -10 -12 -9 -16 1
-20 10 -3 9 -8 -4 -23 -12 -13 -13 -19 -4 -19 7 0 10 -7 6 -15 -3 -8 -1 -15 4
-15 6 0 10 -9 10 -20 0 -11 -5 -20 -11 -20 -6 0 -9 -7 -6 -14 4 -10 1 -13 -8
-10 -10 4 -12 -3 -10 -30 2 -20 -1 -36 -6 -36 -6 0 -7 -5 -4 -10 4 -6 10 -8
15 -5 5 3 12 1 15 -5 4 -6 3 -10 -2 -9 -19 3 -31 -2 -37 -17 -6 -15 -4 -15 11
-3 15 12 16 12 10 -3 -4 -10 -2 -18 4 -18 6 0 8 -7 5 -16 -3 -8 -1 -24 4 -35
6 -11 7 -19 1 -19 -12 0 -1 -42 13 -53 7 -5 3 -6 -8 -3 -11 4 -23 2 -26 -4 -5
-8 -9 -6 -13 5 -4 9 -3 13 3 10 6 -3 9 5 8 19 -2 24 -3 24 -18 8 -9 -9 -19
-25 -23 -36 -6 -14 -4 -17 10 -12 17 7 17 6 1 -10 -16 -16 -15 -20 7 -61 24
-43 24 -43 4 -43 -18 0 -20 4 -15 25 5 19 3 23 -8 19 -11 -4 -13 -12 -6 -29 9
-25 6 -147 -5 -164 -3 -6 -13 -7 -23 -4 -14 6 -15 4 -5 -9 7 -8 10 -18 6 -21
-3 -4 1 -9 10 -13 10 -3 13 -12 9 -22 -4 -13 -3 -15 9 -7 12 8 12 7 -1 -5 -8
-8 -16 -24 -18 -35 -2 -16 -1 -17 7 -5 8 12 11 11 17 -5 4 -11 9 -24 12 -29 3
-5 -3 -6 -13 -2 -14 5 -16 4 -7 -7 8 -9 8 -17 1 -24 -7 -7 -3 -9 15 -6 15 3
26 1 26 -6 0 -6 -8 -11 -17 -11 -16 -1 -16 -2 1 -15 17 -13 17 -15 3 -21 -10
-3 -17 -15 -17 -25 0 -18 25 -19 804 -19 795 0 851 2 805 31 -8 5 -10 9 -5 9
4 0 1 11 -8 25 -9 13 -16 32 -16 42 0 14 -2 15 -9 4 -5 -7 -14 -10 -20 -7 -6
4 -22 -4 -35 -18 -23 -26 -23 -26 -21 -3 1 12 3 22 5 22 1 0 3 12 4 27 1 22
-1 25 -13 15 -12 -10 -14 -8 -9 11 4 12 2 22 -3 22 -4 0 -18 10 -30 23 -12 12
-18 16 -14 8 5 -8 4 -12 -2 -8 -5 3 -8 21 -6 39 3 42 -6 88 -17 88 -5 0 -7 -8
-4 -17 3 -10 -1 -8 -8 5 -8 12 -17 19 -21 16 -4 -4 -7 -3 -7 3 0 5 3 13 7 16
14 15 12 69 -4 93 l-16 26 -11 -28 -12 -27 -13 29 c-10 24 -10 30 2 39 9 6 11
17 7 30 -4 11 -6 23 -3 28 2 4 -3 7 -11 7 -8 0 -20 10 -27 21 -6 12 -7 19 -1
15 5 -3 15 0 21 7 14 17 10 76 -5 70 -6 -2 -14 3 -18 12 -3 9 -9 14 -14 11
-12 -7 -13 36 -1 50 6 8 5 13 -5 17 -10 4 -13 1 -9 -9 7 -20 -7 -18 -23 4 -7
9 -14 12 -14 5 0 -6 5 -15 10 -18 13 -8 13 -35 1 -35 -5 0 -12 8 -15 18 -3 9
-4 5 -2 -10 2 -17 -3 -29 -11 -32 -20 -8 -19 -9 -20 14 -1 11 3 20 10 20 7 0
7 4 -2 13 -10 10 -15 8 -26 -6 -7 -10 -15 -15 -17 -10 -15 27 16 193 36 193 6
0 3 7 -8 15 -10 7 -15 18 -12 23 7 11 -15 82 -26 82 -4 0 -8 4 -8 9 0 6 12 6
32 0 17 -5 34 -6 37 -4 2 3 -1 5 -7 5 -7 0 -12 5 -12 11 0 5 4 7 10 4 5 -3 7
0 4 9 -3 8 -13 17 -22 21 -9 3 -13 3 -9 -1 4 -4 -3 -12 -15 -18 -12 -6 -26
-26 -31 -45 -4 -18 -15 -40 -23 -48 -8 -8 -14 -19 -14 -24 0 -5 -5 -9 -10 -9
-6 0 -8 12 -6 26 3 15 1 34 -4 43 -6 11 -2 37 11 77 11 32 21 68 22 79 2 11
14 43 27 70 13 28 25 61 25 75 1 14 5 33 9 42 4 9 5 21 2 27 -4 5 -2 12 4 16
5 3 10 19 10 36 0 16 4 29 9 29 5 0 8 11 7 25 -2 13 1 22 5 19 5 -3 9 4 9 15
0 11 5 23 10 26 6 4 10 12 9 18 -4 20 13 87 22 93 5 3 9 17 9 31 0 15 7 35 16
45 14 14 14 21 4 32 -8 10 -11 52 -11 128 1 153 1 149 11 143 5 -3 7 5 4 17
-7 28 -7 30 2 101 4 31 11 57 16 57 11 0 0 138 -13 162 -6 10 -7 23 -4 28 3 6
1 10 -5 10 -6 0 -10 6 -9 13 3 28 -13 56 -29 50 -14 -5 -15 -3 -4 8 17 18 15
39 -3 39 -8 0 -14 3 -14 8 3 20 -3 31 -20 37 -11 3 -18 12 -15 19 3 7 -7 21
-21 30 -49 32 -65 50 -53 57 7 4 -3 16 -26 30 -34 23 -53 52 -47 74 1 6 -3 4
-10 -3 -19 -18 -28 -15 -21 10 4 17 2 20 -13 15 -12 -5 -16 -3 -12 7 4 10 1
13 -9 9 -8 -3 -14 1 -14 11 0 9 -9 21 -20 28 -11 7 -20 21 -20 30 0 16 -17 23
-42 19 -5 0 -8 3 -8 7 0 5 -9 19 -20 32 -11 12 -17 27 -14 32 3 5 -8 22 -24
39 -16 16 -35 49 -42 72 -7 23 -19 62 -27 87 -8 25 -15 65 -16 90 -1 25 -5 50
-8 55 -11 19 -11 116 0 129 6 7 12 25 13 40 1 14 8 26 16 26 11 0 13 8 8 32
-4 18 -8 40 -9 50 -5 27 -27 47 -44 41 -9 -4 -14 -2 -10 3 3 5 -10 25 -29 44
-40 38 -54 31 -54 -27 0 -36 -11 -47 -40 -38 -14 4 -20 15 -20 34 0 42 -27 99
-50 106 -13 4 -20 15 -20 30 0 30 -14 39 -40 25 -17 -9 -22 -7 -32 14 -6 14
-15 23 -19 20 -5 -3 -9 -1 -9 5 0 5 5 11 12 13 9 3 9 6 0 12 -6 3 -20 -2 -31
-13 -11 -11 -23 -16 -26 -12 -3 5 -14 7 -25 4 -18 -5 -19 -2 -14 25 5 23 1 33
-17 46 -13 9 -31 16 -40 16 -18 0 -24 56 -8 76 7 8 6 14 -1 19 -6 3 -7 12 -3
18 11 18 10 67 -2 67 -5 0 -2 7 8 14 9 7 17 18 17 25 0 6 5 11 10 11 6 0 10 5
10 10 0 6 9 20 19 32 11 11 17 26 15 33 -3 7 2 19 11 28 8 9 18 35 21 59 5 37
2 48 -22 76 -34 41 -81 67 -113 63 -15 -2 -21 1 -17 8 4 7 -1 11 -13 11 -11 0
-23 5 -26 11 -4 6 -14 8 -22 5 -19 -8 -51 24 -48 47 2 9 -1 15 -5 12 -16 -10
-50 29 -50 56 0 22 -4 26 -24 22 -23 -5 -24 -3 -22 36 2 31 0 41 -12 41 -11 0
-12 3 -3 13 6 8 8 16 5 20 -3 3 0 16 6 29 l12 23 -21 -22 c-12 -13 -27 -23
-34 -22 -9 0 -8 2 1 6 10 4 10 8 0 21 -8 9 -8 13 -1 9 7 -5 11 4 10 27 -1 26
-6 36 -21 40 -35 9 -46 7 -40 -9 5 -11 2 -13 -10 -9 -9 3 -13 11 -9 18 4 6 0
5 -9 -2 -9 -8 -14 -20 -11 -28 5 -12 -7 -19 -29 -15 -5 0 -8 -5 -8 -13 0 -16
-115 -108 -124 -98 -4 3 -4 -1 0 -11 3 -9 2 -17 -4 -17 -6 0 -12 6 -15 13 -5
15 -63 -26 -59 -43 1 -6 -2 -9 -8 -5 -6 3 -8 11 -4 16 7 12 -16 8 -32 -6 -7
-5 -10 -13 -7 -18 2 -4 1 -7 -4 -6 -4 1 -12 0 -18 -1 -5 -1 -14 -3 -20 -4 -27
-6 -75 -29 -75 -36 0 -5 6 -12 12 -16 7 -4 10 -4 6 1 -5 5 6 17 22 27 34 20
50 24 33 7 -6 -6 -9 -17 -6 -24 2 -7 -5 -16 -16 -20 -12 -3 -19 -11 -15 -16 4
-6 10 -6 18 0 9 8 13 6 13 -5 0 -10 -7 -14 -18 -11 -10 3 -19 1 -21 -3 -2 -4
-14 -10 -28 -14 -19 -6 -21 -5 -10 3 9 6 10 11 3 11 -6 0 -18 -6 -25 -14 -10
-9 -20 -11 -31 -5 -10 6 -18 5 -23 -2 -5 -8 -3 -9 6 -4 10 6 12 4 7 -9 -5 -14
-3 -17 8 -13 8 4 17 2 20 -3 3 -5 18 -9 33 -10 63 -3 82 -5 82 -12 0 -3 3 -13
6 -21 4 -12 -15 -10 -108 9 -166 35 -222 51 -332 91 -115 42 -334 151 -420
208 -33 22 -74 48 -93 58 -18 9 -33 23 -33 31 0 7 -30 40 -67 72 -38 33 -79
72 -93 88 -14 16 -46 51 -71 78 -25 26 -51 58 -58 70 -18 35 -72 122 -80 128
-9 7 -26 47 -40 95 -13 42 -60 146 -70 155 -10 9 -33 73 -42 120 -5 25 -13 62
-18 82 -5 20 -7 39 -4 42 3 2 0 13 -5 23 -15 27 -26 150 -32 353 -2 84 9 290
16 302 4 6 8 26 10 43 1 18 8 43 15 56 7 13 11 24 10 24 -2 0 -1 7 18 70 12
40 81 196 91 205 17 15 59 84 92 147 32 63 46 86 85 138 59 77 208 233 261
273 21 15 51 39 67 54 17 15 55 41 86 58 31 16 62 37 69 45 7 8 19 15 27 15 8
0 34 14 59 31 67 46 125 69 145 58 12 -6 19 -5 22 4 4 9 8 8 16 -3 7 -10 11
-11 11 -2 0 6 5 12 10 12 6 0 10 -6 10 -12 0 -7 14 -28 31 -45 16 -18 27 -33
23 -33 -3 0 -2 -6 4 -13 6 -7 14 -32 18 -55 4 -23 12 -42 19 -42 18 0 27 -41
13 -58 -9 -10 -8 -12 2 -10 14 3 52 -61 44 -73 -5 -8 27 -23 41 -20 6 1 5 -3
-2 -9 -14 -16 15 -48 38 -42 9 2 20 -1 23 -7 5 -7 1 -8 -10 -4 -11 4 -15 3
-11 -4 4 -6 1 -14 -5 -17 -7 -3 -2 -3 10 0 28 7 77 -32 63 -50 -6 -7 -2 -11
14 -11 13 0 20 4 17 10 -3 6 2 4 11 -4 9 -7 14 -18 10 -24 -4 -6 0 -8 10 -4
12 4 18 0 23 -18 3 -13 11 -22 18 -19 7 3 18 -7 24 -21 15 -32 15 -38 0 -29
-6 4 -8 3 -4 -4 3 -6 15 -9 26 -7 13 2 21 -3 26 -18 4 -11 12 -27 19 -34 7 -7
16 -18 18 -25 4 -10 7 -10 15 1 6 8 12 9 16 3 3 -5 -1 -13 -9 -16 -8 -3 -14
-9 -13 -13 1 -4 -3 -18 -10 -30 -15 -27 -5 -31 14 -5 11 15 16 15 34 4 12 -8
19 -9 16 -4 -3 6 1 18 10 26 9 9 14 22 11 29 -3 8 9 13 36 14 24 1 46 8 53 17
13 19 40 21 48 4 3 -7 4 -4 3 7 -1 11 4 20 11 21 6 1 17 2 23 3 6 0 9 8 5 16
-3 8 -1 15 4 15 6 0 10 -5 10 -12 0 -18 29 25 30 43 0 9 8 23 18 32 14 13 21
63 12 87 -1 3 -2 8 -1 12 2 14 -19 58 -26 57 -26 -4 -43 3 -43 19 0 10 -11 25
-25 32 -14 7 -25 22 -25 32 0 10 -6 18 -14 18 -8 0 -21 6 -28 13 -7 7 -17 15
-23 16 -5 1 -9 11 -8 22 2 10 -2 19 -7 19 -6 0 -16 11 -22 25 -6 14 -17 25
-24 25 -18 0 -54 31 -54 47 0 7 -7 13 -15 13 -8 0 -15 7 -15 16 0 9 -6 14 -12
12 -7 -3 -21 6 -31 19 -10 13 -23 21 -27 18 -5 -3 -14 4 -20 15 -6 12 -17 19
-23 17 -15 -5 -49 32 -41 44 7 12 -10 11 -22 -1 -6 -6 -15 -5 -24 1 -12 9 -12
10 4 5 12 -4 17 -2 13 6 -3 10 11 13 55 12 33 0 53 3 46 8 -14 8 -6 9 82 12
25 0 50 4 56 8 18 12 187 -29 178 -43 -3 -5 3 -9 13 -10 37 -1 68 -10 71 -19
2 -6 10 -10 18 -10 9 0 12 4 9 10 -4 7 3 7 20 0 23 -9 50 -3 73 15 1 1 9 58
17 126 19 159 34 216 91 336 41 86 58 110 145 197 54 54 96 102 93 107 -3 5 1
7 8 4 20 -7 40 10 43 37 3 22 47 78 61 78 3 0 15 11 28 25 13 14 29 25 35 25
7 0 10 4 7 8 -3 4 16 19 42 33 25 13 55 32 66 42 11 9 23 17 27 17 19 0 129
76 167 115 23 25 48 45 54 45 6 0 25 10 42 23 77 58 229 136 296 153 30 8 64
18 75 23 11 4 38 13 60 19 45 11 102 30 127 43 10 5 37 6 61 3 28 -4 47 -2 51
5 4 6 21 11 38 11 54 0 138 30 137 48 0 11 -2 12 -6 5 -2 -7 -11 -13 -19 -13
-9 0 -12 4 -9 10 3 5 0 7 -8 4 -7 -2 -33 13 -58 36 -24 22 -50 40 -57 40 -7 0
-10 5 -6 12 4 6 3 8 -3 5 -6 -4 -8 -18 -5 -33 4 -25 3 -26 -24 -22 -16 3 -36
7 -44 9 -9 2 -14 -2 -12 -10 3 -12 0 -12 -12 -2 -13 11 -17 10 -22 -3 -3 -9
-10 -14 -14 -11 -5 3 -20 1 -34 -5 -17 -6 -26 -6 -26 0 0 6 -7 10 -15 10 -8 0
-15 5 -15 11 0 5 -4 8 -8 5 -5 -3 -23 -8 -41 -11 -24 -4 -31 -2 -25 6 5 9 0
10 -15 6 -31 -8 -58 2 -39 14 9 6 5 9 -13 9 -15 0 -32 6 -39 14 -6 8 -18 12
-25 10 -18 -7 -65 24 -65 43 0 9 -6 13 -14 10 -11 -4 -11 -1 -2 18 6 13 14 21
18 19 5 -3 16 3 26 12 16 17 16 17 0 11 -10 -3 -20 -2 -23 3 -3 5 4 12 16 15
15 5 18 9 9 15 -10 6 -9 9 1 15 9 6 8 10 -7 17 -18 7 -18 8 1 6 28 -2 56 12
49 24 -4 6 3 5 15 -1 27 -15 91 -11 91 5 0 7 6 15 13 18 8 3 6 9 -7 20 -11 9
-15 16 -10 16 6 0 15 -5 21 -11 15 -15 53 6 52 29 -1 16 -2 15 -6 -1 -5 -19
-23 -14 -23 8 0 9 11 12 35 9 39 -3 44 5 18 28 -22 19 -77 32 -120 29 -19 -1
-33 2 -33 8 0 11 -63 14 -90 4z"/>
<path d="M6733 7659 c-15 -10 -30 -16 -35 -13 -4 3 -8 1 -8 -4 0 -15 -94 -112
-108 -112 -7 0 -12 -7 -12 -15 0 -8 -3 -14 -7 -13 -17 4 -53 -14 -53 -28 0 -8
-6 -13 -12 -11 -7 1 -13 -7 -13 -18 0 -13 -10 -22 -30 -28 -17 -5 -38 -13 -47
-18 -10 -5 -25 -9 -34 -9 -14 0 -15 -3 -3 -17 7 -10 10 -15 5 -11 -5 4 -21 1
-37 -7 -15 -8 -37 -15 -49 -15 -11 0 -20 -4 -20 -9 0 -5 -8 -11 -17 -15 -10
-3 -25 -9 -33 -12 -8 -3 -4 4 10 16 14 12 18 18 10 14 -8 -4 -23 -14 -32 -22
-10 -8 -18 -11 -18 -5 0 5 -7 10 -15 10 -8 0 -13 -2 -10 -5 9 -9 -16 -42 -27
-36 -7 5 -9 2 -5 -9 4 -10 2 -16 -6 -14 -6 1 -13 -8 -15 -20 -3 -19 4 -23 52
-34 42 -9 62 -9 81 -1 17 8 26 8 31 0 4 -6 27 -8 59 -5 47 5 55 3 74 -19 11
-13 24 -24 28 -25 61 -8 104 -5 114 7 10 12 17 11 50 -8 48 -27 64 -15 26 18
-52 45 -82 154 -43 154 7 0 27 -16 46 -35 19 -19 40 -35 48 -35 8 0 10 -5 6
-12 -4 -7 -4 -10 1 -6 4 4 23 1 42 -7 32 -14 39 -13 77 4 37 16 90 61 72 61
-4 0 2 13 13 29 18 25 19 33 10 61 -8 22 -14 28 -19 19 -11 -16 -34 7 -38 39
-3 23 21 32 33 12 3 -5 11 -10 16 -10 6 0 7 5 4 10 -4 6 5 10 19 10 14 0 26
-4 26 -10 0 -5 8 -18 18 -28 42 -44 60 -163 31 -210 -14 -22 -119 -94 -171
-117 l-33 -14 37 -1 c27 0 40 -6 48 -21 10 -17 19 -19 54 -16 24 3 49 2 55 -2
6 -4 35 -4 64 0 28 3 60 2 70 -3 13 -7 17 -5 17 11 0 18 6 20 39 17 21 -2 43
-6 49 -10 6 -4 16 3 22 14 6 11 16 17 22 14 7 -5 9 -2 5 8 -5 15 -1 18 56 33
4 2 9 4 12 5 3 1 11 3 18 4 6 1 12 12 12 26 0 33 13 52 33 48 24 -3 62 24 62
44 0 10 6 18 13 18 8 0 20 11 27 25 7 14 17 25 22 25 16 0 -12 39 -32 45 -11
3 -20 12 -20 20 0 11 -19 17 -80 28 -15 2 -29 28 -24 41 4 10 1 16 -10 16 -10
0 -13 6 -10 15 8 21 -13 19 -25 -2 -9 -16 -10 -16 -11 -1 0 9 -12 21 -27 26
-16 5 -37 13 -47 18 -15 6 -17 4 -11 -7 7 -12 6 -12 -6 -1 -8 7 -14 18 -14 24
0 22 -24 19 -37 -6 -12 -22 -15 -23 -32 -10 -11 8 -14 14 -8 14 7 0 12 5 12
10 0 6 -9 10 -20 10 -11 0 -20 5 -20 12 0 6 -3 9 -6 5 -3 -3 -18 6 -33 19 -14
14 -53 39 -86 55 -53 26 -69 29 -138 27 -54 -1 -85 -7 -104 -19z"/>
<path d="M3004 7589 c-3 -5 -16 -9 -29 -9 -13 0 -30 -6 -37 -12 -24 -23 -73
-45 -86 -41 -14 5 -43 -24 -69 -69 -9 -14 -28 -29 -44 -32 -15 -3 -39 -16 -54
-30 -15 -14 -31 -23 -36 -21 -4 3 -11 0 -14 -5 -4 -7 -19 -9 -35 -5 -16 3 -31
2 -35 -4 -3 -6 -1 -11 5 -11 6 0 8 -5 4 -11 -4 -8 -9 -7 -15 2 -4 7 -5 17 -3
21 3 4 -2 8 -11 8 -9 0 -13 5 -10 10 3 6 1 10 -4 10 -11 0 -13 -8 -14 -47 0
-12 -4 -20 -8 -17 -5 3 -9 0 -9 -6 0 -6 -5 -8 -11 -5 -9 6 -27 -34 -20 -43 1
-2 -6 -10 -16 -19 -10 -8 -13 -12 -7 -9 16 8 25 -17 13 -35 -14 -22 -12 -25
39 -44 26 -10 51 -22 57 -26 12 -12 38 -12 31 0 -3 5 2 12 11 15 11 5 30 -7
59 -36 23 -23 40 -46 38 -50 -3 -4 7 -10 21 -14 28 -7 50 -38 39 -56 -5 -8 0
-9 15 -5 13 3 20 3 17 0 -10 -10 15 -33 36 -33 27 0 80 -29 73 -40 -4 -6 6
-10 22 -10 22 0 25 2 13 10 -11 8 4 10 50 7 36 -2 79 0 95 5 17 5 50 11 75 14
71 9 169 44 245 89 98 58 168 92 204 100 17 4 31 11 31 16 0 6 6 9 13 8 6 -1
28 1 47 4 19 4 46 9 60 11 14 3 25 5 25 6 0 9 165 6 217 -4 80 -15 94 -10 77
27 -7 15 -16 27 -21 27 -5 0 -6 6 -2 13 5 8 2 7 -9 -2 -15 -12 -22 -10 -55 16
-20 16 -59 35 -85 43 -31 8 -46 17 -43 25 6 17 -34 27 -50 14 -8 -6 -14 -6
-18 -1 -4 6 -21 7 -43 2 -20 -5 -42 -6 -47 -2 -6 3 -17 7 -24 8 -8 2 -22 10
-33 20 -10 9 -28 17 -39 18 -11 0 -26 12 -33 26 -18 36 -85 78 -144 90 -29 6
-55 16 -59 21 -3 6 -13 8 -21 5 -8 -3 -31 1 -51 10 -20 8 -39 15 -42 16 -3 0
-13 4 -23 9 -16 9 -105 25 -185 33 -17 2 -35 0 -38 -5z m32 -434 c-6 -16 5
-20 18 -8 10 11 66 12 66 3 0 -5 16 -14 35 -20 19 -6 35 -16 35 -21 0 -6 11
-21 25 -35 36 -36 19 -54 -49 -54 -48 0 -54 3 -98 48 -31 31 -46 54 -43 67 2
11 4 23 4 28 1 4 4 7 7 7 3 0 4 -7 0 -15z"/>
<path d="M2099 7057 c-9 -7 -19 -24 -23 -40 -3 -15 -15 -36 -26 -47 -11 -11
-18 -20 -16 -20 3 0 0 -15 -6 -32 -6 -18 -14 -53 -18 -78 -12 -64 -14 -73 -25
-90 -6 -8 -11 -28 -12 -45 -2 -46 -21 -121 -38 -155 -9 -17 -11 -30 -5 -30 5
0 10 6 10 13 0 6 8 21 17 32 14 18 15 18 9 2 -3 -10 -9 -36 -12 -56 -5 -31 -3
-38 11 -38 12 0 15 7 13 22 -4 19 0 21 27 20 26 0 31 3 27 18 -4 17 -5 17 -25
0 -20 -17 -20 -17 -14 0 4 10 7 21 7 23 0 2 8 4 18 4 13 0 26 15 38 42 10 24
18 46 16 50 -1 5 3 8 9 8 6 0 9 7 5 15 -3 8 -2 15 2 15 4 0 15 14 25 31 11 20
22 29 32 25 8 -3 15 -1 15 4 0 6 -5 10 -12 10 -6 0 -4 6 7 14 12 8 16 20 13
34 -4 12 0 26 8 33 8 6 14 8 14 3 0 -5 7 4 15 19 16 31 11 57 -12 57 -10 0
-14 7 -10 20 3 11 1 20 -4 20 -5 0 -9 11 -9 24 0 32 -10 57 -20 51 -5 -3 -6 5
-3 17 4 19 3 20 -6 8 -7 -10 -11 -11 -11 -2 0 15 -10 15 -31 -1z"/>
<path d="M6480 6538 c-44 -116 -98 -187 -200 -265 -83 -62 -130 -78 -192 -64
-42 10 -229 8 -245 -2 -4 -3 -46 -8 -93 -11 -151 -11 -223 -28 -320 -77 -42
-21 -84 -47 -94 -58 -11 -12 -26 -21 -34 -21 -8 0 -23 -11 -34 -25 -21 -28
-61 -35 -52 -10 4 10 0 15 -14 15 -11 0 -25 -7 -32 -15 -7 -8 -20 -15 -30 -15
-9 0 -31 -7 -48 -16 -18 -8 -40 -13 -51 -9 -11 3 -25 -1 -34 -10 -9 -8 -23
-15 -31 -15 -9 0 -16 -4 -16 -10 0 -5 -7 -7 -15 -4 -8 4 -13 10 -10 14 3 4 -1
13 -9 19 -10 9 -15 8 -19 -2 -6 -15 -30 -16 -61 -2 -11 5 -26 4 -38 -4 -21
-13 -43 -4 -43 19 0 9 -8 14 -20 13 -11 -1 -22 3 -26 8 -3 5 -16 11 -28 14
-13 2 -30 10 -38 17 -18 15 -44 29 -103 58 -25 12 -52 25 -60 29 -8 4 -39 14
-67 21 -33 9 -53 19 -53 28 0 11 -3 12 -14 3 -16 -14 -35 -11 -55 7 -11 11
-15 11 -22 1 -6 -11 -12 -10 -26 3 -47 41 -72 45 -283 47 -196 2 -207 3 -245
26 -41 24 -51 37 -80 110 -15 38 -17 39 -31 21 -19 -27 -18 -44 10 -102 34
-69 66 -142 66 -149 0 -5 23 -38 63 -90 29 -39 58 -83 63 -97 4 -10 12 -18 19
-18 7 0 18 -7 25 -15 7 -8 16 -12 21 -9 5 3 9 0 9 -5 0 -6 5 -11 11 -11 6 0
24 -9 40 -21 16 -11 29 -17 29 -12 0 4 6 1 13 -7 22 -27 92 -75 105 -72 6 2
12 -4 12 -12 0 -8 16 -23 35 -32 19 -9 35 -20 35 -25 0 -5 7 -9 15 -9 8 0 15
-7 15 -15 0 -8 6 -15 13 -15 6 0 19 -15 28 -32 16 -33 47 -54 36 -24 -4 9 -3
16 1 16 15 0 32 -24 32 -45 1 -30 34 -64 69 -71 17 -4 31 -10 31 -15 0 -5 33
-44 74 -87 40 -42 81 -92 90 -110 10 -19 20 -31 23 -28 16 16 213 -339 213
-384 0 -7 7 -21 15 -30 8 -9 12 -25 9 -37 -7 -25 -57 -36 -146 -33 -36 1 -58
-3 -58 -9 0 -6 14 -11 30 -11 17 0 30 -4 30 -10 0 -5 -17 -9 -37 -8 -76 3
-271 -14 -383 -33 -115 -20 -137 -26 -240 -60 -73 -24 -204 -48 -267 -49 -12
0 -25 -5 -29 -12 -4 -6 -12 1 -20 18 l-13 29 5 -35 c5 -34 5 -34 -12 -15 -16
20 -16 20 -11 -1 6 -30 -9 -55 -22 -34 -7 9 -6 17 1 21 6 4 6 9 1 12 -5 3 -14
-3 -21 -14 -8 -12 -9 -19 -1 -19 5 0 7 -5 4 -10 -5 -8 -11 -7 -21 1 -18 15
-15 59 6 77 8 8 9 11 3 7 -7 -3 -13 -1 -13 6 0 9 -4 8 -15 -1 -8 -6 -14 -15
-13 -18 1 -4 -3 -17 -10 -29 -10 -18 -9 -24 5 -33 17 -11 17 -11 1 -6 -10 3
-18 2 -18 -3 0 -4 -11 -6 -25 -3 -25 4 -33 -6 -16 -24 6 -5 4 -14 -5 -22 -12
-11 -14 -10 -14 3 0 8 -5 15 -11 15 -5 0 -7 -5 -4 -10 9 -14 -13 -40 -34 -40
-10 0 -26 -8 -37 -18 -11 -10 -25 -17 -33 -14 -7 2 -17 -2 -22 -9 -7 -12 -12
-12 -29 -1 -11 7 -26 9 -33 5 -7 -4 -5 2 3 12 9 11 10 16 2 11 -7 -4 -15 -1
-18 8 -3 9 -10 13 -15 10 -5 -3 -6 -10 -3 -16 5 -7 1 -9 -9 -5 -11 4 -17 1
-17 -8 0 -8 -4 -15 -10 -15 -6 0 -19 -9 -30 -20 -25 -25 -29 -25 -64 5 -16 14
-35 25 -42 25 -7 0 -18 19 -25 43 -6 23 -16 53 -23 66 -6 13 -10 32 -8 43 2
10 -2 17 -8 16 -7 -2 -14 8 -16 22 -3 13 -10 28 -17 32 -6 4 -8 8 -3 8 5 0 3
6 -3 13 -6 8 -8 17 -4 20 3 4 1 7 -6 7 -7 0 -9 5 -6 11 4 6 -3 18 -16 27 -13
9 -25 14 -27 12 -5 -10 -52 98 -68 160 -9 36 -26 73 -36 83 -11 9 -15 17 -9
17 7 0 9 5 6 10 -3 6 -14 10 -24 10 -20 0 -31 26 -31 73 0 15 -6 30 -14 33
-11 4 -11 10 -3 28 6 13 17 21 24 19 9 -4 11 0 6 13 -5 13 -3 15 8 9 11 -6 12
-5 2 5 -11 12 -15 11 -27 -6 -15 -19 -15 -19 -30 1 -21 27 -20 41 1 24 15 -12
16 -12 10 4 -4 10 -7 20 -7 23 0 2 -7 0 -17 -3 -11 -4 -14 -3 -9 6 5 8 0 18
-13 27 -12 8 -21 22 -21 30 0 18 -14 18 -30 -1 -7 -9 -19 -14 -27 -11 -8 3
-13 -2 -13 -14 0 -11 5 -20 10 -20 6 0 10 -5 10 -11 0 -6 -9 -8 -20 -4 -23 7
-27 -10 -4 -19 8 -3 13 -10 9 -15 -3 -5 -1 -12 4 -16 6 -3 7 -13 4 -22 -4 -11
-3 -14 5 -9 7 4 12 1 12 -8 0 -8 6 -17 13 -19 9 -4 8 -8 -3 -16 -13 -9 -13
-11 3 -11 16 0 22 -12 18 -34 -1 -5 3 -12 8 -15 11 -7 14 -43 8 -108 -2 -26 1
-43 7 -43 6 0 4 -5 -4 -10 -13 -8 -13 -10 2 -10 9 0 18 6 21 13 2 6 8 9 12 5
7 -7 -10 -45 -19 -40 -15 6 -19 1 -6 -8 8 -5 25 -10 37 -10 21 0 22 -4 19 -55
-3 -30 -7 -59 -11 -65 -3 -5 0 -10 7 -10 8 0 21 -16 29 -34 14 -30 14 -36 2
-40 -11 -4 -11 -10 -3 -26 6 -11 7 -20 2 -20 -5 0 -9 -7 -9 -15 0 -12 3 -12
15 -2 13 11 14 9 2 -13 -15 -27 -23 -113 -10 -105 5 3 8 22 8 42 0 21 5 39 11
41 6 2 9 8 5 13 -3 5 2 9 10 9 19 0 21 16 3 27 -10 6 -9 12 5 25 17 17 18 17
18 -7 0 -16 6 -25 15 -25 10 0 16 -11 17 -32 5 -85 3 -114 -6 -130 -8 -13 -7
-23 1 -37 6 -10 8 -22 4 -27 -11 -14 -50 -137 -55 -175 -5 -39 -40 -110 -74
-154 -13 -16 -21 -37 -19 -46 2 -9 -4 -21 -15 -28 -12 -7 -17 -18 -13 -30 4
-13 -4 -21 -30 -31 -35 -14 -43 -24 -26 -34 12 -8 71 26 71 40 0 6 13 17 29
24 16 6 32 18 35 26 4 11 10 12 25 5 16 -9 20 -7 25 14 7 27 26 34 26 10 0
-18 20 -20 20 -2 0 6 10 -1 21 -16 20 -27 22 -27 40 -11 13 12 19 13 19 4 0
-9 4 -9 13 -3 6 6 20 9 29 8 19 -3 45 22 47 48 3 41 5 48 23 64 17 15 18 15
18 -5 0 -12 -3 -22 -7 -22 -13 0 -11 -90 1 -90 6 0 4 -4 -3 -9 -15 -9 -21 -69
-11 -101 3 -9 0 -14 -8 -12 -9 1 -11 -7 -7 -28 3 -16 2 -30 -3 -30 -4 0 -8 -8
-8 -17 -1 -10 -3 -25 -5 -33 -3 -10 2 -14 14 -14 11 1 16 -4 15 -14 -2 -9 2
-17 7 -17 20 -1 36 -18 30 -32 -4 -12 -2 -13 8 -5 13 11 16 3 17 -52 1 -11 6
-28 11 -39 7 -12 7 -17 1 -13 -5 3 -12 -4 -15 -16 -4 -13 -1 -26 6 -30 9 -6 9
-8 -2 -8 -8 0 -11 -7 -8 -20 3 -11 1 -20 -3 -20 -12 0 -22 37 -16 58 3 9 1 24
-4 32 -5 8 -10 11 -10 5 0 -5 -5 -3 -10 5 -8 11 -9 7 -4 -15 7 -28 6 -29 -11
-15 -17 14 -18 14 -6 -8 7 -12 16 -20 20 -17 5 2 11 -4 14 -15 3 -11 1 -20 -4
-20 -5 0 -9 5 -9 12 0 6 -3 8 -7 4 -5 -4 1 -15 12 -23 15 -12 16 -14 3 -10 -9
3 -22 -1 -29 -11 -8 -9 -10 -14 -5 -10 5 4 17 3 27 -2 12 -7 20 -7 24 0 15 24
31 -3 39 -65 1 -5 9 -9 19 -9 24 2 21 -11 -5 -24 -21 -10 -20 -11 9 -7 32 5
53 -8 33 -20 -8 -5 -7 -11 1 -21 9 -11 15 -12 26 -3 11 10 12 8 4 -14 -7 -17
-7 -28 0 -32 5 -4 7 -10 5 -14 -3 -3 4 -7 15 -7 10 0 19 4 19 8 0 4 5 8 11 8
5 0 7 -5 3 -11 -3 -6 0 -15 7 -20 11 -7 9 -9 -6 -9 -19 -1 -19 -1 -2 -11 14
-9 21 -7 32 8 13 17 14 16 8 -6 -5 -19 -3 -22 8 -16 8 5 3 -5 -11 -21 -14 -16
-18 -23 -10 -16 17 15 34 16 25 1 -4 -6 2 -13 12 -15 10 -3 25 -15 32 -26 11
-17 10 -22 -1 -30 -10 -8 -10 -9 2 -5 22 6 110 -97 109 -129 0 -3 11 -14 26
-25 14 -12 22 -25 19 -31 -3 -5 9 -25 27 -44 18 -19 30 -34 25 -34 -4 0 6 -24
22 -52 48 -88 50 -92 67 -133 10 -22 32 -71 50 -110 74 -155 80 -223 35 -395
-35 -138 -39 -153 -43 -195 -3 -22 -12 -78 -21 -125 -17 -92 -22 -210 -12
-275 4 -22 8 -58 9 -80 5 -69 35 -131 61 -127 15 3 16 -2 10 -40 -4 -24 -6
-52 -6 -63 1 -11 -3 -35 -8 -54 -6 -22 -6 -39 0 -46 5 -6 13 -38 16 -71 4 -32
22 -96 40 -141 18 -46 28 -83 22 -83 -5 0 -2 -7 6 -16 9 -8 16 -20 16 -25 0
-6 4 -8 9 -5 8 6 26 -40 23 -57 -1 -4 10 -13 25 -19 16 -7 32 -18 36 -26 5 -7
26 -20 48 -28 21 -9 39 -20 39 -24 0 -5 8 -9 18 -9 38 0 102 -14 102 -23 0 -5
10 -9 23 -8 40 4 58 0 52 -10 -4 -6 9 -8 34 -5 23 3 41 1 41 -4 0 -5 12 -12
28 -16 25 -7 25 -8 7 -15 -15 -6 -16 -9 -4 -9 9 -1 19 2 23 6 20 21 187 19
254 -2 6 -3 12 0 12 5 0 5 7 7 15 4 8 -4 45 1 83 10 37 9 83 17 102 19 20 2
41 7 48 11 7 4 12 2 12 -3 0 -6 5 -11 11 -11 5 0 8 4 5 8 -3 5 9 10 27 11 18
1 48 3 67 4 19 1 41 6 49 11 11 7 12 6 6 -5 -7 -11 -6 -12 6 -3 8 6 31 10 52
9 21 -1 40 2 43 6 8 13 42 11 47 -3 4 -10 8 -9 16 2 6 8 11 10 11 4 0 -6 12
-10 27 -8 15 1 31 0 37 -3 5 -4 35 -7 67 -8 31 0 63 -6 71 -12 7 -6 32 -14 56
-18 23 -4 42 -11 42 -16 0 -11 32 1 43 15 5 8 11 6 20 -4 15 -18 73 -20 70 -2
-3 14 35 16 57 2 9 -6 17 -5 22 3 6 9 11 8 19 -3 8 -12 9 -10 4 9 -8 26 -12
25 68 5 18 -4 26 0 37 20 14 28 54 37 44 11 -4 -8 -1 -15 5 -15 6 0 11 -6 11
-14 0 -9 7 -12 19 -9 12 3 19 14 19 29 0 27 20 57 33 48 5 -3 9 -1 9 5 0 6 7
8 16 4 18 -7 39 18 23 28 -6 3 -3 12 7 20 16 12 17 12 11 -3 -3 -10 -2 -20 3
-23 6 -4 10 -2 10 3 0 6 12 13 28 18 20 5 23 8 9 11 -22 6 -12 23 14 23 10 0
19 4 19 9 0 5 20 18 45 30 27 12 51 33 60 51 13 26 13 29 0 24 -11 -4 -6 15
17 67 18 41 36 76 40 77 5 2 5 8 2 13 -3 6 0 32 6 59 15 61 19 179 8 203 -5 9
-5 17 -1 17 4 0 6 24 5 54 -3 34 6 91 22 157 14 57 27 127 27 154 1 28 6 56
12 63 5 6 6 12 3 12 -4 0 -2 10 5 21 8 15 8 19 0 15 -7 -4 -11 1 -11 12 0 11
7 23 16 26 11 4 13 10 6 19 -11 14 -8 45 6 59 5 5 7 -3 4 -21 -2 -16 0 -31 6
-35 5 -3 10 29 11 81 1 48 5 91 8 96 3 6 1 7 -5 3 -9 -5 -12 7 -12 39 0 28 4
44 10 40 6 -3 10 -1 10 4 0 6 -4 11 -10 11 -12 0 -13 77 -1 84 4 3 6 16 4 30
-3 13 0 32 7 43 9 15 11 12 6 -19 -4 -32 -2 -36 15 -33 23 5 25 -10 2 -19 -12
-5 -13 -10 -5 -18 8 -8 8 -17 1 -30 -7 -12 -6 -18 2 -18 6 0 9 -7 5 -15 -3 -8
-2 -15 3 -15 9 0 33 -181 37 -284 1 -44 7 -72 16 -77 10 -7 10 -9 1 -9 -8 0
-13 -14 -13 -36 0 -23 -7 -42 -17 -51 -10 -8 -13 -12 -7 -9 7 3 14 -1 18 -9 3
-8 11 -15 18 -15 7 0 14 -13 15 -30 1 -17 -2 -30 -7 -30 -5 0 -7 -7 -4 -15 4
-8 0 -23 -7 -32 -10 -12 -10 -15 -1 -9 6 4 12 2 12 -3 0 -6 -4 -11 -10 -11 -5
0 -10 -5 -10 -11 0 -5 5 -7 10 -4 9 6 16 -35 10 -60 -7 -30 0 -128 11 -141 9
-11 10 -17 1 -22 -12 -8 -9 -39 6 -87 9 -25 10 -26 11 -8 1 13 7 22 14 20 6
-1 11 5 9 13 -2 11 2 9 13 -4 16 -21 10 -40 -11 -32 -10 4 -14 -3 -14 -23 0
-16 -6 -32 -12 -35 -7 -4 -3 -4 9 -2 22 4 59 -25 46 -37 -11 -11 -43 -8 -43 4
0 6 7 8 18 4 12 -4 14 -3 6 5 -16 16 -47 1 -41 -21 3 -11 1 -21 -4 -24 -4 -3
-6 -13 -3 -23 5 -14 4 -14 -4 -2 -6 8 -9 17 -7 20 2 4 -3 7 -11 7 -10 0 -12
-6 -8 -16 4 -9 7 -28 6 -43 -1 -15 3 -27 7 -25 5 1 9 -2 9 -8 0 -5 -4 -9 -10
-7 -5 1 -7 -2 -3 -8 3 -6 10 -8 15 -5 4 3 11 -2 14 -11 3 -8 2 -13 -2 -10 -4
2 -8 -15 -9 -37 -1 -40 -1 -41 12 -17 7 14 11 28 9 32 -3 5 -1 8 5 8 5 0 13 9
16 20 3 11 10 20 15 20 12 0 6 -28 -8 -42 -7 -7 -12 -19 -12 -28 0 -9 -5 -21
-11 -27 -8 -8 -5 -13 10 -18 26 -8 31 -54 12 -100 -5 -11 -14 -35 -21 -52 -7
-18 -16 -30 -21 -27 -5 3 -9 2 -8 -3 4 -15 -13 -43 -22 -37 -5 3 -8 -5 -6 -18
1 -16 -3 -23 -17 -23 -11 0 -21 6 -24 14 -3 8 0 11 6 7 5 -3 13 1 16 10 10 25
8 25 -19 2 -22 -19 -23 -23 -10 -31 13 -7 15 -19 10 -55 -7 -51 -35 -95 -35
-55 0 12 5 25 10 28 6 4 7 11 4 17 -4 6 0 14 7 19 7 4 10 12 5 16 -5 4 -11 3
-13 -4 -2 -7 -12 -9 -21 -6 -14 4 -14 3 -3 -5 15 -11 7 -47 -8 -37 -6 3 -7 13
-4 22 5 12 3 14 -8 8 -11 -6 -12 -5 -1 6 17 18 15 25 -9 26 -16 2 -19 -2 -14
-15 5 -13 3 -14 -6 -5 -14 14 -2 36 16 29 8 -3 19 1 25 9 8 10 8 14 -2 18 -8
3 -6 6 5 6 10 1 16 5 12 11 -3 5 -12 7 -19 4 -8 -3 -19 8 -28 28 -8 18 -13 28
-12 21 2 -6 -11 -17 -27 -23 -31 -13 -41 -33 -11 -24 16 5 16 5 0 -6 -24 -15
-23 -34 0 -28 12 3 19 0 19 -9 0 -9 -6 -11 -16 -7 -9 3 -24 9 -33 11 -14 4
-15 9 -7 24 17 33 -18 36 -47 4 -22 -24 -24 -32 -15 -52 6 -12 7 -23 2 -23
-10 0 -9 -19 1 -36 10 -14 -30 -47 -49 -40 -11 5 -13 2 -9 -10 3 -8 6 -20 6
-26 0 -7 5 -6 14 1 11 9 16 9 22 0 4 -8 3 -9 -4 -5 -7 4 -12 2 -12 -3 0 -6
-10 -11 -21 -11 -18 0 -19 -2 -9 -15 8 -10 9 -15 1 -15 -7 0 -8 -8 -1 -26 7
-16 7 -23 0 -19 -6 3 -10 1 -10 -5 0 -18 -29 -42 -41 -34 -8 5 -9 3 -5 -5 5
-7 14 -10 22 -7 21 8 17 -11 -7 -35 -11 -11 -18 -27 -15 -35 3 -9 1 -12 -4 -9
-9 6 -14 -11 -13 -43 1 -10 -2 -10 -13 -1 -8 6 -14 8 -14 3 0 -5 -8 0 -16 11
l-16 20 4 -20 c2 -14 -2 -20 -15 -19 -13 2 -15 -1 -7 -11 8 -9 4 -11 -16 -7
-21 4 -25 1 -22 -14 3 -18 26 -19 701 -21 467 -1 697 1 697 8 0 6 5 7 11 3 22
-13 138 -12 143 2 3 7 0 16 -6 20 -7 5 -2 11 13 17 15 6 19 11 11 14 -10 4
-10 8 -1 19 6 8 8 14 5 14 -4 0 -2 9 4 21 9 15 8 24 0 35 -10 11 -9 19 4 39
15 23 15 25 0 25 -13 0 -14 3 -5 14 10 11 8 16 -7 20 -11 4 -23 17 -26 29 -9
32 -8 37 9 37 9 0 12 -6 8 -17 -5 -11 -3 -14 6 -8 10 5 11 2 6 -14 -4 -13 -2
-21 5 -21 7 0 10 17 8 44 -2 29 -7 41 -12 35 -13 -12 -29 -12 -21 1 3 6 -1 7
-9 4 -9 -3 -16 -2 -16 4 0 5 7 12 15 16 13 4 13 9 3 25 -7 11 -16 18 -20 15
-4 -3 -5 2 -2 10 3 9 -5 25 -20 39 -14 13 -26 27 -26 31 0 12 -27 36 -33 29
-9 -8 -37 23 -37 40 0 9 -5 17 -11 19 -9 3 -9 10 1 27 11 21 10 23 -4 18 -9
-4 -16 -2 -16 3 0 6 6 10 13 10 8 0 8 3 -2 9 -12 8 -12 12 -3 24 7 8 11 21 10
28 -4 19 -31 38 -43 31 -5 -3 -4 1 3 10 8 10 9 19 3 22 -5 3 -12 1 -14 -4 -3
-6 -4 -5 -3 2 2 7 10 12 20 10 19 -3 21 9 4 26 -9 9 -14 7 -24 -6 -12 -16 -13
-15 -10 3 3 20 19 25 76 26 14 0 19 3 13 6 -7 2 -13 12 -13 21 0 13 -2 14 -9
4 -7 -11 -9 -10 -15 3 -3 9 -11 13 -17 9 -8 -5 -10 1 -7 19 3 15 0 29 -6 31
-6 3 -2 4 9 3 11 -2 20 -9 19 -17 -1 -10 10 -16 27 -17 21 -2 27 2 22 12 -3 8
0 15 6 15 6 0 11 -11 11 -25 0 -14 5 -25 10 -25 15 0 12 23 -6 48 -9 13 -22
21 -30 18 -8 -3 -14 -1 -14 4 0 5 -8 6 -17 3 -13 -5 -15 -2 -10 11 4 9 3 15
-2 11 -5 -3 -11 0 -13 5 -2 6 -12 12 -23 14 -12 2 -19 10 -17 20 3 16 -22 23
-31 9 -2 -5 -3 -3 -1 4 3 13 -27 43 -43 43 -13 0 -30 20 -35 40 -2 8 -7 19
-13 23 -6 5 -1 6 10 1 11 -4 30 -8 43 -8 12 -1 22 -4 22 -7 0 -14 32 -18 44
-7 19 18 -12 68 -39 64 -11 -2 -19 -10 -17 -17 2 -8 -4 -6 -17 5 -27 25 -26
28 7 26 41 -3 49 0 30 11 -10 5 -18 15 -18 21 0 7 5 6 14 -1 12 -10 13 -9 9 7
-2 11 1 23 8 27 7 5 10 4 5 -3 -3 -6 -1 -14 6 -18 7 -4 10 -4 6 0 -3 4 0 19 8
34 15 29 12 38 -8 26 -20 -13 -47 -12 -42 1 3 8 28 12 67 11 54 -1 62 1 61 17
-2 13 1 15 11 7 19 -16 28 29 11 55 -12 19 -12 21 9 23 13 1 28 -5 35 -13 6
-7 19 -11 27 -8 12 5 14 3 8 -8 -4 -8 -5 -11 0 -7 4 4 17 2 28 -4 17 -9 19 -8
14 6 -10 26 3 19 35 -18 18 -21 42 -36 64 -40 22 -5 32 -11 28 -18 -5 -7 -2
-9 9 -5 9 3 18 0 21 -9 3 -8 11 -14 18 -14 9 0 8 3 -2 10 -13 9 -13 10 0 10
10 0 4 9 -14 25 -17 14 -36 23 -42 21 -9 -3 -11 1 -7 11 5 12 3 14 -7 8 -10
-6 -12 -4 -7 9 4 10 3 15 -3 11 -5 -3 -18 -1 -27 4 -10 6 -14 11 -10 11 4 0 2
6 -5 14 -7 8 -16 12 -20 9 -8 -4 -12 11 -9 35 2 10 -8 15 -29 14 -3 0 -12 7
-20 16 -13 14 -12 15 2 10 12 -5 15 -2 11 13 -3 10 -9 19 -14 19 -5 0 -9 4 -9
10 0 5 10 8 23 6 13 -2 21 -9 19 -18 -1 -9 5 -21 13 -28 9 -8 15 -8 15 -2 0 6
-5 14 -10 17 -6 4 -8 11 -5 16 7 11 52 2 82 -17 33 -20 36 -17 11 11 -12 14
-28 23 -35 21 -7 -3 -12 0 -10 7 1 7 -3 11 -10 10 -6 -1 -17 5 -24 13 -10 13
-10 17 2 25 11 7 11 9 0 9 -8 0 -11 6 -7 17 4 9 1 21 -6 26 -9 6 -8 7 5 3 17
-5 23 5 10 18 -10 9 -13 36 -4 36 4 0 15 -13 24 -30 16 -27 15 -34 -5 -32 -3
1 -8 -4 -11 -11 -3 -8 3 -14 14 -14 11 -1 17 2 14 8 -4 5 -2 9 4 9 5 0 13 -4
16 -10 3 -5 12 -10 18 -10 7 1 6 5 -4 13 -8 7 -18 20 -22 29 -5 15 -4 16 13 6
11 -7 22 -24 25 -39 3 -14 20 -36 37 -49 17 -12 28 -18 24 -11 -4 6 -1 11 8
11 8 0 18 -5 21 -11 4 -5 14 -9 23 -7 10 2 26 -7 36 -20 13 -16 26 -22 42 -19
15 2 30 -3 40 -14 10 -11 23 -19 29 -19 7 0 19 -7 26 -16 12 -15 11 -16 -11
-10 -19 6 -21 5 -10 -3 8 -6 23 -8 33 -5 15 5 22 -5 19 -28 -1 -3 5 -9 13 -12
8 -3 15 -1 15 4 0 13 30 0 52 -22 10 -10 23 -16 28 -13 6 4 7 -1 3 -11 -5 -14
-3 -16 12 -10 11 4 16 4 13 0 -11 -10 37 -44 62 -44 14 0 19 -4 14 -12 -6 -10
-4 -10 8 0 14 11 18 10 26 -4 5 -9 22 -18 38 -20 16 -1 30 -7 32 -13 2 -5 10
-7 18 -4 8 3 14 -1 14 -10 0 -10 7 -13 20 -10 12 3 20 0 20 -6 0 -7 -5 -9 -12
-5 -10 6 -9 3 0 -8 8 -9 20 -14 28 -11 10 4 13 0 8 -13 -4 -13 -3 -15 3 -6 5
7 16 11 24 9 8 -2 11 -2 7 0 -5 3 -8 11 -8 18 0 8 -8 19 -17 24 -10 6 -12 11
-5 11 18 0 15 20 -4 20 -8 0 -12 5 -9 11 5 7 13 5 25 -6 14 -12 20 -13 26 -4
4 8 3 10 -4 5 -7 -4 -12 -2 -12 3 0 14 13 14 28 -1 9 -9 12 -8 13 7 1 11 1 24
0 28 -1 5 3 6 8 3 5 -4 8 -15 6 -25 -2 -10 3 -18 11 -18 10 0 11 4 3 14 -12
14 -9 15 31 15 17 -1 19 1 7 4 -17 5 -20 26 -4 25 4 -1 14 -1 22 -1 9 0 15 -9
15 -22 1 -20 2 -21 10 -6 11 18 4 48 -11 48 -5 0 -9 7 -9 16 0 12 6 15 21 11
16 -4 19 -2 14 11 -5 15 -4 15 12 0 16 -17 16 -18 -2 -33 -11 -8 -15 -15 -9
-15 5 0 15 5 22 12 14 14 25 5 27 -25 1 -12 5 -21 8 -20 44 15 62 15 76 -3 33
-40 114 -109 103 -87 -19 34 -15 40 28 39 22 -1 40 -1 40 0 0 1 -15 11 -32 23
-18 11 -27 21 -19 21 8 0 4 7 -9 18 -39 32 -14 45 30 17 38 -24 40 -24 50 -6
8 16 4 22 -33 40 -27 14 -35 21 -22 21 16 0 17 2 5 9 -8 6 -17 8 -21 5 -4 -2
-6 7 -4 22 2 18 -1 24 -12 20 -8 -3 -11 -1 -8 4 3 6 13 10 21 10 15 0 19 12 7
23 -3 4 -12 2 -20 -4 -10 -9 -13 -6 -13 15 0 14 -4 26 -10 26 -5 0 -9 6 -7 13
1 6 -7 12 -17 12 -19 0 -29 13 -40 49 -5 14 -9 16 -20 7 -11 -9 -15 -7 -21 6
-5 10 -7 26 -6 36 2 17 -15 24 -21 8 -1 -4 -12 -5 -23 0 -19 7 -19 8 3 8 23 1
32 21 10 21 -22 1 -101 79 -95 93 3 8 1 20 -5 28 -8 11 -9 10 -4 -4 5 -17 3
-16 -20 2 -15 12 -33 21 -40 21 -7 0 -11 6 -8 14 3 9 -6 17 -25 24 -37 13 -41
24 -6 18 15 -3 23 -1 20 5 -4 5 -10 7 -15 4 -9 -6 -25 24 -29 55 0 6 -10 10
-21 10 -13 0 -20 7 -20 18 0 10 -5 23 -12 30 -9 9 -9 12 0 12 7 0 12 -4 12
-10 0 -5 10 -10 23 -10 19 1 20 2 5 10 -9 6 -15 18 -14 27 2 10 1 13 -1 6 -3
-8 -12 -5 -27 10 -13 12 -21 28 -18 35 5 15 23 16 19 0 -1 -7 12 -12 31 -14
17 -1 32 -1 32 1 0 7 -39 45 -46 45 -5 0 -8 17 -7 37 2 51 2 51 14 29 9 -15
13 -16 20 -5 5 8 3 16 -4 21 -7 4 -3 6 10 5 12 0 19 -6 15 -12 -4 -5 -7 -14
-8 -20 -1 -5 -5 -19 -9 -30 -5 -16 -5 -17 3 -5 9 12 14 12 32 -5 19 -17 20
-17 14 -1 -5 12 -2 17 7 16 8 -1 25 -1 39 0 l25 2 -28 10 c-19 7 -32 7 -41 -1
-13 -11 -26 -5 -26 10 0 5 8 5 17 2 12 -5 15 -2 10 10 -8 21 -4 21 34 1 28
-14 33 -14 54 0 30 19 32 20 32 2 0 -8 -6 -12 -14 -9 -7 3 -13 -2 -13 -12 0
-9 5 -13 10 -10 6 4 23 -1 38 -11 24 -15 25 -16 13 -1 -12 15 -11 17 7 17 14
0 19 5 17 18 -2 9 -4 21 -4 26 -1 5 -4 7 -7 3 -3 -3 -18 6 -33 21 -53 53 -78
91 -77 119 1 15 -6 35 -14 44 -8 10 -25 28 -38 42 -14 16 -30 24 -40 21 -13
-5 -14 -4 -3 4 11 8 7 13 -18 26 -17 9 -31 23 -31 31 0 8 -8 15 -17 16 -15 0
-15 2 2 8 17 8 16 10 -15 18 -25 6 -36 16 -38 31 -2 12 -8 20 -13 16 -5 -3 -7
-10 -4 -15 4 -5 -1 -9 -9 -9 -14 0 -14 3 -4 20 7 11 15 20 18 21 3 0 13 2 22
4 9 2 23 -4 30 -13 7 -9 8 -13 3 -10 -6 4 -17 2 -25 -4 -13 -8 -12 -9 1 -5 9
3 22 0 29 -6 10 -9 11 -9 6 0 -3 6 -2 14 4 18 6 4 7 11 4 17 -4 7 -2 8 4 4 7
-4 12 -14 12 -22 0 -8 5 -14 11 -14 7 0 18 -8 26 -17 13 -16 13 -16 3 5 -6 12
-8 22 -4 22 4 0 0 8 -8 18 -9 9 -19 32 -23 50 -3 17 -13 32 -20 32 -7 0 -15 7
-19 15 -3 8 -1 15 4 15 6 0 10 5 10 11 0 5 -6 7 -12 3 -8 -5 -8 -1 2 12 8 10
10 16 6 12 -11 -9 -56 49 -56 71 0 14 1 14 10 1 5 -8 10 -11 10 -7 0 5 -9 20
-20 34 -11 14 -17 29 -15 33 3 5 0 12 -6 16 -8 4 -9 3 -5 -4 4 -7 2 -12 -3
-12 -17 0 -13 28 4 38 22 12 9 39 -23 48 -20 5 -23 8 -9 11 11 3 17 13 16 31
-1 17 -3 20 -6 10 -3 -14 -7 -15 -18 -5 -9 9 -10 17 -3 32 8 14 8 20 -1 23 -7
2 -16 15 -22 29 -5 13 -14 21 -19 18 -6 -4 -8 -10 -5 -15 6 -10 -34 -35 -43
-26 -3 3 -1 6 4 6 4 0 -2 7 -14 16 -12 8 -20 19 -17 24 3 5 -7 16 -22 24 -15
8 -21 15 -13 16 13 0 13 1 0 10 -8 5 -10 10 -5 10 12 0 43 -20 31 -20 -5 0 -3
-7 4 -15 7 -8 17 -12 22 -9 6 4 8 -2 3 -15 -3 -12 -2 -21 4 -21 5 0 18 -3 28
-6 16 -5 16 -4 -2 12 -15 13 -16 15 -3 11 12 -4 18 2 23 25 4 17 10 26 14 20
4 -6 21 -13 39 -17 28 -5 32 -3 32 17 0 19 -2 20 -10 8 -6 -10 -10 -11 -10 -2
0 6 0 15 0 20 0 4 -15 12 -33 19 -18 7 -24 12 -14 12 10 1 15 6 12 11 -4 6
-11 8 -16 5 -5 -3 -6 1 -3 10 5 11 10 13 19 5 9 -8 14 -6 19 6 9 24 7 44 -5
44 -6 0 -8 -9 -3 -22 6 -19 4 -21 -7 -12 -8 6 -23 10 -35 8 -18 -3 -20 1 -16
21 2 15 0 25 -7 25 -6 0 -11 5 -11 11 0 5 5 7 12 3 7 -4 8 -3 4 5 -11 17 -28
2 -21 -20 4 -11 2 -19 -5 -19 -6 0 -9 4 -5 9 6 11 -34 53 -45 46 -5 -3 -11 6
-14 19 -3 13 -15 26 -26 29 -14 4 -18 10 -13 23 4 10 2 15 -3 11 -6 -3 -16 -2
-24 3 -12 7 -11 12 4 29 11 12 14 21 8 21 -6 0 -9 6 -6 14 3 8 1 17 -5 21 -7
4 -8 0 -4 -11 4 -12 3 -15 -5 -10 -7 4 -12 3 -12 -3 0 -5 6 -12 13 -15 9 -5 9
-7 -1 -12 -7 -3 -20 -13 -29 -22 -13 -13 -15 -14 -11 -2 3 8 -2 21 -11 28 -9
8 -10 10 -2 6 11 -6 12 1 6 32 -4 21 -11 42 -17 45 -7 4 -6 14 2 30 10 21 9
22 -3 7 -12 -16 -15 -15 -40 8 -15 14 -27 30 -26 37 0 9 2 9 6 -1 9 -23 22 -1
13 23 -7 19 -6 23 5 18 8 -3 15 0 15 6 0 6 6 8 13 5 7 -2 21 4 31 15 16 18 17
22 3 35 -8 9 -17 21 -20 28 -2 7 -8 10 -12 6 -4 -4 -2 -14 4 -22 9 -11 9 -16
0 -22 -8 -4 -9 -3 -5 4 4 7 2 12 -3 12 -6 0 -11 9 -11 20 0 11 -4 20 -10 20
-5 0 -12 11 -16 25 -3 13 -13 27 -23 30 -9 2 -22 14 -29 25 -11 18 -9 24 16
50 16 16 32 27 35 24 2 -3 7 2 10 10 4 11 1 13 -10 9 -12 -5 -15 -2 -10 10 3
9 2 19 -3 22 -16 10 -11 25 5 19 8 -4 15 -2 15 4 0 6 -6 13 -12 15 -9 4 -10 6
-1 6 6 1 19 -6 28 -15 23 -24 27 -13 4 14 -10 13 -23 21 -28 18 -18 -11 -5 24
18 48 14 15 19 26 12 31 -6 3 -11 -1 -11 -9 0 -8 -4 -17 -9 -20 -4 -3 -8 5 -7
17 0 12 -7 30 -16 40 -21 20 -25 45 -5 30 6 -5 23 -10 36 -11 14 0 29 -8 33
-17 5 -8 14 -13 19 -9 6 3 13 -3 16 -15 3 -11 9 -18 14 -15 5 3 9 1 9 -5 0 -5
-6 -12 -12 -14 -8 -3 -6 -6 4 -6 10 -1 20 -12 24 -25 3 -14 14 -32 25 -42 10
-9 19 -23 19 -30 0 -7 5 -14 12 -16 9 -3 9 -6 0 -12 -7 -4 -12 -2 -12 3 0 6
-5 11 -10 11 -6 0 -6 -7 2 -19 6 -10 17 -17 24 -14 9 3 11 -2 7 -16 -4 -17 -2
-20 13 -15 11 4 16 4 12 -1 -4 -4 -3 -16 3 -26 13 -25 1 -24 -28 3 -13 12 -23
17 -23 11 0 -6 4 -13 8 -15 9 -4 52 -63 52 -72 0 -4 -11 -4 -25 0 -34 8 -32
-7 7 -45 44 -43 69 -41 52 3 -7 19 -34 22 -34 4 0 -9 -3 -9 -12 0 -14 14 -10
19 17 22 27 3 65 -10 65 -22 0 -5 -6 -6 -12 -2 -9 6 -9 3 1 -9 10 -13 18 -14
35 -6 19 9 19 9 4 -4 -10 -8 -15 -17 -11 -20 3 -4 12 -2 20 4 9 9 13 8 13 0 0
-6 -4 -11 -10 -11 -5 0 -10 -5 -10 -11 0 -6 7 -8 16 -5 13 5 14 1 9 -22 -4
-21 -1 -33 11 -43 16 -13 16 -12 5 9 -7 13 -10 27 -6 30 11 12 33 -28 28 -49
-4 -13 -1 -19 8 -17 8 2 13 -3 12 -9 -2 -7 4 -13 13 -13 8 0 13 -4 10 -9 -4
-5 8 -20 25 -33 18 -13 50 -41 72 -63 23 -22 47 -39 55 -37 9 2 13 -2 9 -10
-3 -8 7 -21 25 -31 16 -9 26 -12 23 -7 -3 5 10 8 32 5 21 -2 37 -8 36 -14 -2
-6 3 -11 10 -11 6 0 25 -16 40 -35 15 -19 33 -35 39 -35 6 0 20 -7 30 -17 20
-18 25 -4 6 15 -9 9 -9 12 3 12 15 0 101 -55 94 -61 -2 -2 19 -17 46 -34 27
-17 47 -36 44 -42 -2 -7 2 -13 11 -13 8 0 17 -7 21 -16 4 -12 8 -11 18 8 7 13
8 27 3 33 -5 6 6 13 28 20 21 6 39 16 42 24 3 10 0 12 -12 8 -17 -7 -23 8 -7
17 5 3 5 22 1 42 -9 40 -17 51 -27 40 -4 -4 -1 -11 7 -16 8 -6 10 -10 4 -10
-16 0 -35 25 -32 41 2 8 -5 13 -14 13 -10 -1 -18 2 -18 7 0 6 -18 28 -40 51
-29 30 -36 44 -27 50 19 12 30 9 24 -7 -4 -8 -1 -17 5 -21 6 -4 8 -3 5 2 -3 6
-2 16 3 24 5 9 4 20 -3 30 -9 12 -9 13 3 3 8 -7 18 -13 23 -13 5 0 -3 10 -19
22 -35 27 -74 70 -74 82 0 4 -7 6 -14 3 -11 -4 -13 -1 -9 10 4 10 2 14 -4 10
-6 -4 -21 5 -32 19 -12 15 -21 23 -21 19 0 -5 -11 5 -25 21 -14 16 -25 23 -25
17 0 -7 -5 -13 -11 -13 -5 0 -8 4 -5 9 3 5 -1 14 -9 21 -8 7 -12 16 -9 21 3 5
-2 6 -11 3 -10 -4 -15 -2 -13 7 2 8 -4 13 -13 11 -9 -1 -19 5 -23 13 -4 13 -1
15 14 10 16 -5 19 -3 13 10 -4 12 -13 15 -33 11 -20 -3 -33 1 -45 14 -11 12
-13 20 -7 20 7 0 12 5 12 11 0 6 -6 9 -14 6 -7 -3 -13 0 -13 6 1 40 -6 55 -30
67 -16 7 -23 15 -15 17 6 3 12 9 12 15 0 6 -7 8 -15 4 -8 -3 -28 6 -44 20 -25
20 -31 22 -38 10 -10 -17 -35 -2 -46 28 -6 15 -3 17 12 13 13 -3 18 0 17 11
-2 9 -17 20 -34 24 -29 8 -45 28 -22 28 6 0 10 -5 10 -12 0 -6 3 -8 6 -5 4 4
1 13 -6 22 -10 11 -10 15 0 15 6 0 14 -9 17 -20 8 -29 23 -25 23 6 0 15 -9 35
-20 44 -12 10 -19 24 -18 31 2 8 -2 13 -8 12 -6 -1 -24 11 -39 27 -16 17 -26
30 -23 30 4 0 -6 14 -20 30 -15 17 -34 30 -44 30 -10 0 -18 4 -18 9 0 5 -9 12
-19 16 -11 3 -21 16 -23 27 -2 12 -10 23 -18 25 -13 4 -13 3 0 -6 8 -5 11 -13
8 -16 -11 -12 -28 5 -29 28 -1 20 -2 20 -9 -3 -4 -14 -9 -23 -10 -20 -4 11
-11 46 -12 57 -1 7 -5 10 -10 7 -5 -4 -7 -12 -4 -20 3 -8 -1 -14 -9 -14 -10 0
-12 6 -8 18 6 14 4 15 -8 5 -14 -11 -42 -4 -40 11 1 3 -2 6 -5 5 -4 0 -12 10
-18 23 -6 12 -20 25 -31 27 -11 2 -23 8 -27 15 -6 8 -11 7 -18 -4 -9 -13 -11
-13 -19 -1 -5 8 -7 21 -3 29 4 11 1 13 -8 7 -9 -5 -11 -4 -6 4 4 6 12 9 17 6
5 -4 9 -2 9 4 0 5 -9 13 -20 16 -11 3 -20 13 -20 20 0 8 -4 17 -10 20 -6 4 -7
-1 -3 -11 6 -16 4 -16 -20 2 -29 21 -34 34 -14 34 8 0 8 3 -2 9 -8 5 -11 16
-8 24 3 8 0 20 -6 26 -6 6 -7 11 -2 11 6 0 3 5 -5 11 -12 8 -9 9 13 5 15 -4
27 -3 27 2 0 4 -14 9 -32 10 -37 3 -52 12 -20 12 15 0 22 6 22 20 0 11 4 20 9
20 5 0 7 -10 4 -22 l-6 -23 23 22 c13 12 24 32 25 45 1 13 5 32 9 43 6 16 6
17 -3 5 -9 -13 -10 -13 -15 0 -2 8 -7 23 -10 33 -3 9 -1 17 4 17 6 0 10 7 10
16 0 8 4 13 9 10 5 -3 15 2 22 11 12 15 12 16 -5 10 -14 -6 -17 -4 -12 9 4 11
2 15 -8 11 -8 -3 -17 -1 -20 6 -2 7 -5 -1 -5 -18 -1 -16 -5 -25 -9 -20 -11 15
-32 17 -32 3 -1 -8 -6 -5 -15 5 -12 17 -16 14 -41 -38 -15 -31 -38 -67 -51
-81 -13 -14 -23 -29 -23 -33 0 -4 -12 -18 -27 -32 -14 -13 -23 -18 -19 -11 9
15 1 15 -25 1 -11 -5 -17 -14 -14 -20 4 -5 -1 -9 -10 -9 -11 0 -15 -5 -12 -14
3 -8 -1 -17 -9 -20 -8 -3 -14 -14 -14 -24 0 -11 -7 -25 -15 -32 -13 -11 -14
-10 -9 3 4 12 1 14 -16 10 -19 -5 -20 -7 -5 -29 18 -28 19 -38 3 -28 -7 5 -2
-8 10 -27 13 -18 31 -52 41 -74 10 -22 25 -46 34 -54 11 -9 16 -29 16 -64 -1
-29 4 -65 11 -82 13 -33 13 -35 -2 -52 -5 -7 -12 -45 -14 -84 -3 -49 -9 -78
-20 -91 -14 -14 -14 -18 -3 -18 8 -1 6 -6 -7 -13 -12 -7 -20 -20 -18 -30 1 -9
-2 -14 -8 -11 -6 4 -8 -2 -3 -15 5 -18 3 -22 -11 -19 -9 2 -19 -4 -21 -12 -4
-12 -3 -12 5 -1 5 7 12 9 15 4 3 -5 -3 -15 -15 -22 -15 -9 -18 -9 -13 0 5 7 3
10 -6 7 -8 -3 -13 -11 -11 -17 1 -6 -2 -11 -8 -11 -5 0 -10 5 -10 11 0 7 -9 0
-21 -15 -20 -26 -39 -34 -39 -17 0 5 9 11 20 14 11 3 20 11 20 19 0 8 -3 9 -8
3 -8 -12 -32 -13 -50 -1 -8 5 -20 2 -32 -9 -12 -11 -20 -13 -25 -6 -3 6 -2 11
3 11 6 0 8 8 5 19 -5 21 -49 45 -65 35 -8 -5 -9 3 -5 23 3 17 3 34 0 37 -4 4
-8 17 -10 29 -5 29 -33 57 -40 39 -3 -9 -10 -4 -19 13 -16 30 -11 45 14 45 14
0 14 2 3 9 -7 5 -13 22 -12 37 2 29 1 109 -2 152 -1 12 -6 22 -12 22 -5 0 -3
5 5 10 8 5 10 10 4 10 -6 0 -12 15 -13 33 0 17 -3 60 -5 95 -3 43 -1 62 7 62
7 0 3 7 -7 15 -11 8 -16 15 -10 15 5 0 1 7 -9 14 -18 14 -18 14 1 21 17 5 19
11 12 35 -5 17 -6 30 -3 30 3 0 0 7 -7 15 -10 12 -10 18 1 31 11 14 11 18 -1
28 -18 14 -20 62 -2 58 17 -3 15 14 -5 33 -13 13 -14 18 -3 25 7 4 10 13 6 19
-4 6 0 21 9 34 8 13 12 26 9 29 -8 9 35 30 46 23 12 -7 33 42 24 56 -3 5 -10
6 -16 3 -7 -4 -8 -2 -4 5 4 6 11 9 16 6 5 -3 11 -1 15 5 12 20 24 -1 23 -38
-2 -47 2 -62 27 -84 17 -15 18 -19 5 -28 -11 -7 -11 -10 -2 -10 19 0 92 -61
92 -76 0 -7 -6 -15 -12 -17 -9 -4 -8 -6 2 -6 17 -1 34 -41 46 -104 4 -27 9
-35 15 -25 7 10 9 9 9 -4 0 -11 8 -18 18 -18 13 0 18 7 17 23 -2 12 -8 21 -14
19 -10 -2 -15 10 -13 29 1 4 -3 21 -8 38 -6 20 -5 30 2 28 6 -1 13 4 15 11 3
6 -2 12 -11 12 -9 0 -16 5 -16 10 0 6 -7 10 -15 10 -16 0 -16 21 0 32 13 10
-5 27 -35 33 -13 2 -26 8 -29 13 -3 5 -14 11 -23 15 -10 4 -16 14 -13 26 3 14
-1 18 -11 14 -10 -4 -12 0 -8 11 3 9 12 16 20 16 8 0 14 5 14 11 0 5 4 8 10 4
5 -3 7 -12 4 -19 -4 -10 4 -13 30 -13 24 1 32 5 26 12 -10 12 -9 33 3 52 4 6
3 14 -3 18 -5 3 -10 -1 -10 -9 0 -9 -6 -16 -12 -16 -9 0 -8 -4 2 -11 11 -8 9
-9 -10 -3 -31 8 -39 15 -22 21 6 3 9 9 6 15 -4 6 -12 1 -20 -13 l-12 -24 -7
28 c-7 28 -19 35 -30 17 -3 -5 -1 -10 4 -10 14 0 14 -37 1 -45 -5 -3 -10 2
-10 12 0 10 -6 27 -13 38 -23 34 -25 50 -9 65 14 13 15 12 9 -3 -4 -11 0 -20
13 -27 17 -9 19 -8 13 7 -6 16 -5 16 10 4 13 -10 17 -10 17 -1 0 6 -9 14 -21
17 -17 5 -19 12 -16 41 4 23 -1 44 -11 61 -10 14 -12 22 -6 18 7 -4 11 4 10
22 -1 16 -5 29 -11 28 -12 -2 -13 34 -1 51 6 8 3 12 -8 12 -9 0 -16 5 -16 10
0 6 7 10 15 10 19 0 20 16 1 23 -22 9 -41 -21 -38 -57 3 -25 -5 -41 -33 -71
-19 -22 -33 -45 -30 -53 2 -7 0 -10 -5 -7 -6 3 -10 -1 -10 -9 0 -8 -13 -24
-30 -36 -17 -12 -27 -27 -24 -35 3 -7 -3 -18 -14 -24 -14 -7 -18 -17 -14 -36
2 -15 -1 -37 -8 -51 -12 -21 -11 -26 5 -38 17 -12 17 -16 6 -30 -10 -12 -11
-20 -4 -27 11 -11 6 -49 -6 -49 -3 0 -7 -24 -7 -52 -1 -80 -13 -161 -25 -169
-8 -5 -8 -9 1 -14 23 -14 -22 -32 -70 -29 -32 3 -51 -1 -59 -10 -7 -8 -21 -12
-31 -9 -16 4 -20 0 -20 -21 0 -15 4 -25 9 -22 5 3 11 0 14 -8 7 -18 -24 -31
-34 -15 -4 7 -14 9 -23 6 -9 -4 -16 -2 -16 3 0 11 -71 1 -89 -14 -12 -9 -13
-8 -6 4 6 12 5 12 -5 3 -7 -6 -19 -9 -28 -5 -11 4 -14 1 -9 -11 4 -10 -5 -24
-29 -42 -19 -14 -35 -24 -35 -21 -1 4 -2 11 -3 17 0 6 -16 13 -35 14 -18 2
-37 8 -41 15 -4 7 -13 9 -19 6 -6 -4 -11 -3 -11 2 0 12 -44 31 -85 37 -28 4
-64 14 -175 50 -34 11 -46 11 -52 2 -4 -7 -8 -7 -8 -2 0 6 -4 5 -8 -2 -6 -10
-14 -9 -34 1 -15 8 -29 12 -31 10 -2 -3 -15 0 -29 5 -25 9 -62 17 -158 31 -38
5 -57 4 -62 -4 -6 -8 -8 -7 -8 1 0 7 -10 12 -22 12 -38 -1 -105 11 -140 25
-18 8 -64 17 -103 21 -38 4 -74 11 -80 15 -5 4 -37 11 -70 15 -32 3 -66 10
-75 14 -8 5 -21 6 -27 4 -12 -4 -71 31 -84 50 -3 5 -5 18 -3 30 2 12 6 40 9
62 3 21 8 41 10 44 3 2 0 10 -6 17 -6 8 -7 14 0 18 6 4 8 13 4 22 -3 8 -2 14
3 13 21 -4 35 2 29 11 -4 6 1 7 11 3 12 -4 15 -2 12 8 -3 8 -12 13 -21 13 -8
-1 -13 4 -11 11 3 6 22 11 44 11 22 -1 40 2 40 7 0 4 -9 7 -21 7 -14 0 -19 5
-17 18 2 9 10 16 16 14 7 -1 13 7 13 18 2 33 4 38 12 46 4 4 7 20 7 35 0 15 5
31 10 34 6 4 17 22 25 41 8 19 29 48 47 64 18 17 29 30 25 30 -9 0 36 44 79
78 15 12 23 22 16 22 -7 0 -12 5 -12 10 0 6 5 10 11 10 6 0 17 7 25 15 9 8 12
15 8 15 -4 0 2 9 14 20 12 11 23 20 24 20 2 0 69 63 148 140 80 77 160 145
178 152 17 7 32 15 32 19 0 6 50 41 85 59 28 14 164 122 191 151 18 19 60 77
96 129 47 70 67 111 77 155 7 33 21 89 31 125 20 70 20 91 0 38z m-851 -2064
c14 -9 33 -30 41 -47 11 -23 29 -37 66 -52 44 -17 98 -55 79 -55 -4 0 0 -7 9
-15 13 -13 13 -21 1 -60 -15 -50 -14 -61 1 -89 20 -34 62 -6 55 37 -1 4 8 3
20 -4 13 -6 19 -7 15 -1 -3 6 -1 14 5 18 6 3 15 1 19 -6 5 -8 9 -8 13 4 4 9 3
15 -1 15 -20 -3 -23 3 -11 18 8 9 9 14 2 10 -20 -12 -2 33 18 46 11 7 19 16
19 20 0 11 26 37 32 32 3 -4 71 5 183 24 98 17 117 -19 110 -209 -6 -181 -48
-366 -143 -630 -9 -25 -17 -50 -18 -55 -1 -6 -11 -32 -23 -57 -11 -26 -21 -55
-21 -66 0 -42 -93 -195 -128 -212 -28 -12 -46 -4 -37 19 5 13 4 14 -6 4 -7 -7
-16 -13 -20 -13 -8 0 -27 76 -33 130 -2 19 -6 42 -9 50 -6 19 -30 102 -32 115
-2 6 -5 42 -8 80 -4 39 -11 94 -16 122 -6 29 -15 103 -22 165 -14 143 -33 238
-51 249 -12 7 -44 31 -90 69 -25 19 -29 48 -12 81 7 15 10 29 7 33 -18 18 -63
-8 -63 -37 0 -20 -50 -83 -89 -112 -92 -67 -184 5 -161 125 6 34 6 140 -1 140
-9 0 -19 -27 -19 -54 0 -21 -11 -52 -43 -115 -16 -32 -59 -43 -101 -26 -34 14
-36 22 -61 178 -5 32 -11 39 -36 44 -27 5 -42 23 -19 23 6 0 5 8 -2 19 -7 11
-15 18 -19 16 -3 -3 -12 -48 -20 -100 -7 -54 -21 -109 -31 -126 -18 -29 -21
-30 -61 -24 -50 9 -143 59 -157 85 -6 10 -10 30 -10 44 0 14 -4 28 -10 31 -15
9 -12 88 4 110 18 25 85 26 271 2 11 -1 23 -6 28 -12 4 -7 10 -6 15 2 4 6 30
14 59 18 45 5 53 4 67 -16 l15 -22 12 26 c16 36 43 34 80 -4 28 -29 33 -30 55
-19 13 8 24 17 24 22 0 13 49 29 99 33 24 2 45 6 48 8 7 8 85 -13 112 -29z
m-983 5 c31 1 31 0 37 -60 3 -34 3 -103 0 -155 l-6 -94 -58 -55 c-32 -30 -64
-55 -71 -55 -33 0 -84 76 -109 164 -8 27 -20 51 -26 53 -7 3 -10 10 -7 17 4 6
-5 -2 -19 -17 -17 -18 -28 -24 -32 -17 -13 21 -28 -5 -17 -27 8 -15 4 -33 -19
-81 -16 -34 -29 -65 -29 -68 0 -4 -11 -31 -25 -61 -26 -54 -45 -68 -45 -33 0
11 -4 20 -9 20 -8 0 -67 226 -75 293 -3 20 -1 37 4 37 6 0 10 -5 10 -11 0 -5
4 -8 10 -4 5 3 7 12 3 20 -3 8 0 15 6 15 7 0 23 12 36 26 15 17 36 27 60 28
21 2 40 8 44 13 6 9 17 10 41 1 47 -18 50 -18 50 7 0 22 5 25 33 25 18 0 37 4
43 9 10 11 66 17 109 13 17 -2 44 -3 61 -3z m-690 -118 c-3 -5 4 -7 16 -3 12
3 19 1 15 -5 -3 -5 1 -36 9 -69 8 -32 17 -70 20 -84 7 -33 51 -89 80 -102 13
-6 24 -15 24 -20 0 -5 -4 -6 -10 -3 -5 3 -10 -1 -10 -9 0 -9 5 -16 12 -16 9 0
9 -3 1 -11 -8 -8 -8 -20 -3 -34 5 -13 6 -26 3 -29 -4 -3 1 -6 9 -6 11 0 14 -6
11 -20 -3 -11 0 -34 7 -50 9 -21 9 -34 2 -43 -5 -6 -10 -55 -10 -107 1 -122
-7 -207 -21 -223 -16 -20 -26 -98 -13 -106 6 -3 13 -22 15 -41 3 -19 6 -37 7
-40 7 -18 -5 -69 -23 -95 -12 -16 -23 -41 -25 -55 -2 -13 -5 -26 -7 -29 -6 -5
-35 19 -35 29 0 5 -18 28 -40 51 -22 24 -40 48 -40 54 0 5 -9 28 -19 50 -17
34 -25 53 -36 85 -1 3 -5 13 -8 23 -17 42 -20 54 -28 92 -7 37 -29 110 -49
160 -13 34 -28 88 -40 145 -6 30 -16 71 -21 90 -12 48 -19 140 -10 140 4 0 7
11 7 25 0 14 -3 25 -6 25 -4 0 -7 7 -7 15 0 8 3 12 7 10 4 -2 7 25 6 60 0 36
-5 65 -10 65 -5 0 1 12 15 26 33 36 110 73 143 70 16 -2 30 2 33 10 4 11 8 11
20 -1 8 -8 12 -19 9 -24z m3135 -420 c7 11 11 10 23 -6 18 -23 21 -39 6 -30
-5 3 -2 -7 8 -24 9 -16 18 -28 21 -26 4 5 31 -21 31 -30 0 -12 -25 -30 -57
-41 -28 -11 -32 -10 -38 10 -4 13 -8 16 -11 9 -6 -15 -34 -3 -68 29 -17 16
-18 18 -3 13 10 -4 17 -2 17 4 0 6 -6 11 -12 11 -9 0 -8 4 2 10 12 8 11 10 -7
10 -18 0 -22 5 -19 23 1 12 7 20 12 17 5 -3 8 -7 7 -10 -1 -3 10 -7 25 -8 18
-1 23 1 14 7 -11 7 -9 13 10 30 20 20 23 20 27 5 2 -14 5 -14 12 -3z m-234
-375 l-22 -9 22 -4 c27 -5 36 -28 17 -47 -8 -8 -10 -17 -5 -20 21 -14 -21 -98
-45 -89 -9 3 -14 -2 -14 -13 0 -16 -2 -17 -10 -4 -8 13 -10 12 -11 -5 -1 -11
-1 -24 0 -29 3 -15 -21 -56 -30 -50 -4 2 -6 17 -4 32 2 15 2 21 -1 15 -3 -7
-13 -13 -21 -13 -9 0 -13 -6 -10 -14 3 -7 -1 -23 -9 -35 -8 -12 -13 -25 -10
-29 2 -4 -4 -9 -15 -9 -10 -1 -19 3 -19 8 0 6 5 7 11 3 7 -4 10 -1 7 7 -2 7 1
25 8 38 7 14 11 28 8 33 -7 11 -32 -15 -27 -28 2 -7 0 -15 -5 -18 -10 -6 -9
16 3 52 4 12 13 22 20 22 7 0 16 8 19 17 6 15 8 15 17 3 8 -11 9 -9 4 8 -5 16
-1 30 11 43 9 10 14 19 9 19 -4 0 -1 7 6 17 19 22 19 63 1 55 -10 -3 -13 0
-10 9 3 8 11 13 17 11 6 -1 16 9 21 24 6 15 14 22 22 18 8 -5 9 -2 5 10 -5 14
-3 17 8 12 8 -3 15 0 15 7 0 7 9 1 20 -13 19 -25 19 -25 -3 -34z m465 -1160
c9 0 14 -4 12 -8 -7 -10 28 -26 45 -20 10 3 12 0 7 -13 -5 -15 -4 -16 8 -6 12
10 19 8 34 -7 11 -11 29 -23 40 -26 17 -6 19 -3 15 15 -5 17 -2 20 13 17 11
-2 18 -11 16 -20 -3 -17 28 -20 40 -3 4 6 8 2 8 -7 0 -10 7 -18 15 -18 8 0 15
-4 15 -10 0 -5 5 -10 10 -10 6 0 19 -9 30 -20 12 -12 25 -18 31 -15 5 4 8 1 7
-7 -2 -8 4 -12 15 -10 10 2 17 -3 17 -13 0 -9 12 -18 30 -21 17 -4 30 -11 30
-16 0 -5 -10 -6 -22 -2 -13 3 -20 3 -16 -1 4 -4 18 -9 31 -10 14 -2 37 -11 52
-21 25 -16 26 -19 9 -25 -11 -4 -16 -8 -12 -8 3 -1 14 -4 23 -7 9 -4 15 -3 14
2 -5 30 -1 28 55 -21 16 -14 32 -25 37 -25 4 0 7 -8 6 -19 -1 -13 -8 -18 -28
-17 -15 1 -31 5 -36 10 -5 5 -1 7 10 3 9 -4 17 -2 17 3 0 6 -16 10 -36 10 -19
0 -45 5 -56 11 -16 9 -24 7 -37 -6 -15 -16 -15 -17 5 -11 17 5 22 3 20 -11 0
-10 11 -23 27 -31 15 -7 27 -18 27 -24 0 -6 9 -8 19 -5 14 3 21 -2 26 -20 4
-16 11 -23 20 -19 7 2 24 -3 37 -13 13 -11 39 -25 59 -34 34 -14 43 -32 33
-66 -6 -19 -34 5 -34 30 0 12 -11 24 -27 32 -16 6 -31 16 -35 22 -5 6 -8 3 -8
-6 0 -9 10 -21 23 -27 20 -10 21 -11 2 -11 -21 0 -55 21 -58 36 -1 4 -8 7 -15
5 -8 -2 -12 0 -9 5 3 4 -6 8 -19 8 -22 0 -23 -1 -7 -12 9 -7 12 -13 7 -13 -6
0 -19 7 -30 15 -25 19 -34 19 -34 -1 0 -15 -2 -15 -25 0 -14 9 -30 14 -35 11
-6 -3 -10 -1 -10 5 0 8 10 9 30 5 34 -8 51 0 44 19 -3 8 -14 12 -25 9 -10 -3
-26 0 -34 7 -11 9 -18 10 -29 1 -11 -9 -18 -4 -34 24 -23 38 -79 78 -100 70
-7 -3 -11 -1 -8 3 3 5 -12 16 -34 26 -29 13 -38 22 -35 36 2 13 -2 20 -11 20
-8 0 -17 7 -20 15 -4 8 -9 13 -14 10 -4 -2 -13 7 -20 20 -7 14 -18 25 -24 25
-6 0 -20 13 -31 29 -11 17 -21 28 -23 26 -7 -7 -89 98 -97 124 -6 21 -5 22 17
15 12 -4 31 -8 40 -8z m-3240 -327 c30 -16 68 -51 68 -63 0 -10 23 -32 134
-129 21 -19 53 -58 71 -88 32 -54 52 -67 83 -53 9 4 23 6 30 5 6 -1 12 5 12
13 0 9 8 14 20 13 11 -1 20 -4 20 -8 0 -14 41 -17 54 -3 8 8 21 11 29 8 16 -6
29 -64 15 -64 -4 0 -8 -5 -8 -11 0 -5 5 -7 10 -4 6 3 10 2 10 -4 0 -5 -5 -13
-10 -16 -14 -8 5 -41 31 -55 15 -8 24 -8 34 0 8 7 30 10 50 7 19 -3 38 -1 41
4 7 12 109 12 132 0 9 -5 46 -17 80 -26 60 -15 65 -15 82 0 13 12 42 18 92 21
102 5 156 -4 163 -27 4 -11 11 -17 16 -14 5 4 9 2 9 -2 0 -18 55 -42 73 -32
24 14 53 72 38 77 -6 2 -8 14 -5 28 5 18 2 24 -10 24 -12 0 -16 9 -16 34 0 40
-17 57 -23 24 -4 -20 -4 -19 -6 5 0 16 5 30 14 33 8 4 12 11 8 17 -3 6 -1 7 5
3 7 -4 12 -15 12 -24 1 -24 29 -59 38 -47 11 15 32 17 33 2 0 -6 4 -3 8 8 5
12 4 26 -3 35 -10 13 -9 13 7 1 9 -7 17 -24 17 -36 0 -22 6 -25 82 -41 37 -8
66 15 108 88 23 40 48 77 56 81 9 5 19 20 24 33 5 13 15 23 21 22 6 -2 12 7
14 19 1 12 15 39 31 60 27 35 29 36 32 16 2 -13 8 -23 13 -23 5 0 9 -7 9 -16
0 -8 4 -13 9 -10 29 18 73 -249 66 -399 -4 -88 -37 -230 -71 -302 -8 -18 -40
-52 -71 -75 -31 -24 -64 -51 -74 -60 -12 -12 -19 -13 -23 -5 -2 7 -5 4 -5 -6
-2 -30 -86 -60 -146 -51 -27 4 -53 7 -56 6 -4 0 -6 8 -5 20 1 27 -30 32 -60 9
-20 -16 -21 -18 -6 -30 15 -11 15 -11 -3 -8 -11 2 -27 -3 -34 -11 -22 -23
-123 -10 -164 20 -44 34 -61 37 -241 44 l-156 6 -47 -31 c-59 -39 -86 -39
-126 0 -28 28 -38 32 -107 36 -52 4 -84 2 -100 -7 -40 -21 -113 -14 -164 17
-42 25 -46 31 -41 58 4 28 4 29 -10 11 -8 -10 -12 -23 -8 -29 4 -6 1 -7 -6 -3
-7 5 -10 14 -7 22 3 8 0 11 -10 7 -17 -6 -56 25 -48 38 3 5 -2 9 -11 9 -10 0
-13 5 -9 12 5 7 2 9 -8 5 -13 -4 -17 4 -23 39 -4 29 -11 44 -21 44 -15 0 -57
43 -54 55 1 4 -5 12 -13 18 -27 21 -43 133 -54 362 -7 146 -7 151 0 220 8 83
18 96 59 74z"/>
<path d="M4613 1455 c-14 -11 -14 -13 5 -27 22 -15 62 -97 62 -127 0 -9 6 -23
13 -29 6 -7 13 -17 13 -22 1 -6 2 -15 3 -21 2 -16 26 -5 27 12 1 31 16 58 35
64 28 9 102 2 111 -10 4 -5 34 -9 67 -8 33 1 63 -2 66 -7 4 -6 13 -7 23 -1 9
5 32 7 50 6 22 -2 32 2 32 11 0 16 26 19 35 4 3 -5 16 -10 29 -10 12 0 26 -4
32 -9 18 -18 72 -23 85 -8 9 10 23 12 45 7 32 -7 33 -6 59 52 31 68 26 82 -29
80 -19 -1 -64 5 -101 13 -37 7 -72 12 -78 10 -7 -2 -40 -6 -75 -9 -35 -3 -67
-8 -71 -10 -5 -3 -46 4 -92 15 -57 15 -88 18 -98 12 -14 -9 -55 -10 -71 -2 -3
1 -9 3 -15 4 -5 1 -17 5 -25 8 -32 12 -121 14 -137 2z"/>
<path d="M3088 5275 c-12 -13 -74 -22 -94 -14 -12 4 -27 3 -34 -1 -11 -7 -10
-11 3 -25 10 -9 17 -23 17 -31 0 -8 3 -13 8 -13 28 5 51 -3 46 -15 -4 -10 3
-13 24 -11 16 1 35 6 42 10 9 6 11 4 5 -5 -6 -10 -4 -12 8 -7 9 3 19 2 22 -3
4 -6 24 -10 46 -10 25 0 42 -5 45 -14 6 -16 62 -19 81 -4 8 6 19 2 32 -11 12
-12 30 -21 40 -21 11 0 22 -6 24 -12 4 -10 6 -10 6 0 1 17 41 15 41 -3 0 -21
12 -19 33 6 10 11 25 18 32 15 8 -3 17 -1 20 4 4 6 11 10 17 10 6 0 5 -7 -3
-17 -13 -15 -12 -15 9 -4 26 14 46 6 22 -9 -7 -5 -14 -18 -15 -29 -1 -11 2
-18 7 -15 5 4 7 12 4 20 -5 12 -2 15 19 14 9 -1 33 25 30 30 -2 3 15 5 37 6
22 0 42 5 46 10 10 15 105 32 128 23 35 -12 242 -17 255 -5 9 8 10 8 5 -1 -8
-15 40 -20 106 -12 26 3 45 2 42 -2 -2 -4 14 -9 36 -11 34 -3 40 -1 40 16 0
11 -3 17 -6 13 -4 -3 -13 1 -21 9 -9 8 -22 13 -29 10 -9 -3 -14 2 -14 14 0 11
-6 20 -14 20 -7 0 -19 6 -25 14 -35 41 -372 67 -461 35 -25 -10 -61 -16 -80
-15 -19 2 -39 0 -45 -3 -5 -3 -17 -6 -25 -6 -8 0 -14 -5 -13 -10 2 -14 -40
-14 -49 -1 -6 8 -11 6 -17 -3 -5 -8 -16 -11 -26 -7 -15 5 -16 4 -5 -9 10 -13
9 -15 -9 -15 -12 0 -21 6 -21 16 0 8 -4 13 -8 10 -26 -16 -66 -14 -82 4 -14
16 -29 18 -96 17 -59 -2 -78 1 -76 11 1 6 -5 12 -13 12 -8 0 -15 4 -15 8 0 4
-8 8 -17 9 -10 1 -27 4 -38 8 -11 3 -23 3 -27 0z"/>
<path d="M5618 5241 c3 -9 1 -12 -6 -8 -6 4 -22 2 -36 -5 -20 -8 -25 -16 -20
-31 5 -16 2 -18 -14 -13 -15 5 -20 3 -18 -10 2 -10 12 -18 24 -19 12 -1 19 2
17 5 -3 4 12 10 33 14 21 3 38 1 40 -4 2 -6 23 -10 47 -10 60 0 107 -11 102
-24 -5 -11 42 -14 59 -4 5 4 26 5 46 4 20 0 34 2 32 6 -3 5 7 3 23 -3 15 -6
29 -10 31 -9 2 1 54 -6 102 -15 8 -2 34 -8 58 -14 23 -7 46 -10 50 -7 5 3 28
0 51 -6 31 -8 45 -8 50 0 4 6 17 9 29 5 12 -3 19 -10 15 -16 -4 -6 0 -8 10 -4
9 3 19 2 22 -3 4 -6 18 -10 33 -11 24 0 25 -1 7 -9 -18 -8 -17 -9 8 -9 15 -1
39 6 52 15 18 11 25 13 25 4 0 -7 7 -10 16 -6 8 3 13 2 10 -3 -3 -5 2 -12 11
-15 10 -4 14 -4 11 0 -16 15 17 30 53 24 23 -4 42 -3 50 4 8 8 13 8 16 -1 5
-14 53 4 53 19 0 5 4 7 8 4 4 -2 8 4 9 14 2 21 -20 31 -79 37 -21 1 -56 5 -78
7 -22 2 -47 9 -57 17 -16 13 -17 12 -4 -4 13 -17 10 -17 -45 -12 -42 4 -64 12
-76 27 -10 11 -18 15 -18 9 0 -7 -4 -9 -10 -6 -6 4 -7 -1 -3 -11 5 -13 2 -15
-13 -10 -10 3 -36 1 -56 -3 -23 -5 -38 -5 -38 0 0 14 44 28 51 17 3 -5 9 -3
12 6 5 12 -3 17 -31 21 -20 3 -57 10 -82 15 -43 10 -108 20 -160 24 -14 2 -42
8 -62 15 -25 8 -90 11 -201 9 -137 -2 -163 -5 -159 -17z"/>
<path d="M10080 80 l0 -80 80 0 80 0 0 80 0 80 -80 0 -80 0 0 -80z"/>
</g>
</svg>
