<svg version="1.1" id="Layer_1" xmlns="http://www.w3.org/2000/svg" xmlns:xlink="http://www.w3.org/1999/xlink" x="0px" y="0px"
	 width="100%" viewBox="0 0 976 976" enable-background="new 0 0 976 976" xml:space="preserve">
<path fill="#000000" opacity="1.000000" stroke="none" 
	d="
M248.858932,373.140045 
	C279.290527,403.272705 309.737061,432.858002 336.806610,465.748962 
	C363.650635,498.365967 347.780884,556.231079 299.950195,568.224670 
	C285.750854,571.785095 271.902344,570.870239 258.345734,565.327820 
	C257.496735,564.980774 256.711853,564.057861 255.176987,564.858582 
	C259.509766,574.210571 265.796875,581.993042 273.644318,588.543823 
	C276.318634,590.776306 279.265808,592.696350 282.173492,594.631104 
	C285.422302,596.792847 287.178802,599.623962 286.045898,603.521240 
	C284.940430,607.323914 281.938202,608.336060 278.242340,608.331543 
	C246.744675,608.293152 215.246933,608.310791 183.749222,608.326721 
	C180.155869,608.328552 176.881775,607.505615 175.841629,603.649658 
	C174.774918,599.695374 176.222900,596.637512 179.937958,594.439087 
	C190.187912,588.373657 198.154144,579.988953 204.165466,569.727661 
	C204.994354,568.312683 206.113678,567.007202 205.889511,564.779480 
	C200.135544,566.474243 194.599960,568.571045 188.719528,569.553162 
	C151.427856,575.781616 116.078232,548.285217 112.476021,510.705627 
	C110.713860,492.322113 115.774429,476.671570 127.493484,462.634613 
	C150.808365,434.708008 176.402664,408.955994 202.266083,383.449951 
	C209.145905,376.665161 216.160858,370.017548 223.096893,363.289551 
	C229.456009,357.121216 232.382126,357.071259 238.597122,363.109161 
	C241.943451,366.360107 245.271194,369.630219 248.858932,373.140045 
z"/>
<path fill="#000000" opacity="1.000000" stroke="none" 
	d="
M596.399536,592.600952 
	C651.682068,647.852417 706.724243,702.844421 761.761963,757.840881 
	C762.703308,758.781433 763.715942,759.687134 764.479309,760.762390 
	C766.802490,764.035217 766.869751,767.410217 763.947205,770.267883 
	C760.991638,773.157959 757.483093,773.054138 754.489014,770.400330 
	C750.630554,766.980530 747.071594,763.220032 743.422302,759.567627 
	C675.940430,692.027222 608.464233,624.481079 540.987000,556.936035 
	C525.561829,541.495422 510.077301,526.113159 494.763580,510.562805 
	C491.720093,507.472290 489.768524,506.953979 486.362305,510.371857 
	C424.139893,572.807007 361.792236,635.117432 299.467468,697.450623 
	C275.551453,721.369812 251.632202,745.285767 227.698608,769.187378 
	C223.958588,772.922363 219.758957,773.202393 216.758667,770.033997 
	C213.811172,766.921326 214.165329,762.907532 217.994965,759.067688 
	C241.176437,735.824402 264.392792,712.615906 287.609344,689.407654 
	C349.594177,627.445068 411.595795,565.499268 473.560577,503.516663 
	C481.824982,495.249847 481.033234,497.069244 473.522888,489.554810 
	C394.481720,410.470428 315.408020,331.418518 236.339890,252.361038 
	C230.330612,246.352570 224.286606,240.378830 218.274719,234.372971 
	C214.267365,230.369659 213.624985,226.036545 216.539124,222.949020 
	C219.644745,219.658615 224.140823,220.161819 228.305466,224.328445 
	C290.732239,286.784821 353.150940,349.249268 415.576691,411.706665 
	C439.132629,435.274567 462.751404,458.780029 486.205109,482.449158 
	C489.322083,485.594757 491.096008,485.958191 494.497192,482.549744 
	C553.113586,423.808136 611.901611,365.237885 670.601929,306.579987 
	C698.065430,279.136353 725.422791,251.586502 752.827393,224.084061 
	C756.739868,220.157684 761.104614,219.665894 764.222534,222.806137 
	C767.328491,225.934265 766.821167,230.083603 762.738586,234.165222 
	C727.742004,269.153534 692.724976,304.121490 657.731873,339.113342 
	C621.089722,375.754211 584.471069,412.418518 547.834351,449.064850 
	C533.462952,463.440094 519.166565,477.892731 504.616882,492.085510 
	C501.186920,495.431335 501.200043,497.440399 504.600983,500.819153 
	C535.213806,531.232544 565.662109,561.811523 596.399536,592.600952 
z"/>
<path fill="#000000" opacity="1.000000" stroke="none" 
	d="
M710.213928,616.762146 
	C686.656982,589.306030 663.431274,562.033508 641.972595,533.328064 
	C634.599121,523.464478 627.086243,513.650269 621.532715,502.562317 
	C606.764954,473.077576 614.808350,423.641785 648.836426,402.832214 
	C669.859070,389.975983 698.419250,392.449371 716.606812,409.202637 
	C720.736938,413.007019 724.707153,416.971130 728.456787,421.925629 
	C733.884094,414.678345 739.535095,408.609161 746.630127,404.105896 
	C772.552490,387.652832 803.979858,392.753601 823.740173,416.949493 
	C839.640808,436.419403 844.219543,458.947174 840.986877,483.541504 
	C838.729004,500.719391 828.839600,514.023682 819.081665,527.236572 
	C794.723633,560.218933 768.219238,591.481750 741.355774,622.436462 
	C739.281982,624.826172 737.329773,627.329285 735.153992,629.621094 
	C730.067993,634.978271 725.781433,634.831909 720.843079,629.186462 
	C717.333069,625.173767 713.908142,621.086670 710.213928,616.762146 
M809.384216,512.891052 
	C810.366211,511.546265 811.205872,510.063995 812.351929,508.877686 
	C825.956421,494.794159 825.492493,477.492371 823.925842,459.795258 
	C823.326294,453.021454 818.541382,448.486267 816.082092,442.741974 
	C814.143738,438.214539 810.897949,435.121765 806.380676,433.192596 
	C801.723450,431.203766 799.816833,432.001953 799.388123,437.160767 
	C798.906433,442.957001 798.980225,448.807831 798.999634,454.634247 
	C799.011963,458.342041 798.622620,461.982178 797.480469,465.470551 
	C796.249207,469.231354 793.959167,469.564026 791.273315,466.638580 
	C789.239685,464.423584 788.818542,461.570251 788.202942,458.828979 
	C786.022400,449.118927 782.370972,440.541138 773.076965,435.231628 
	C769.396362,433.128937 766.405945,429.896545 764.111450,426.030457 
	C761.561462,421.733917 757.349548,420.224060 752.442139,421.301453 
	C746.914124,422.515137 742.349731,425.095062 739.199402,430.137238 
	C736.982483,433.685394 735.169128,437.407257 733.228149,441.082489 
	C731.042847,445.220337 727.240967,445.326965 724.841064,441.310577 
	C724.165100,440.179199 723.858765,438.831665 723.222778,437.671021 
	C714.217407,421.234161 707.682678,416.125427 691.218018,419.375641 
	C687.118591,420.184906 683.096924,420.900879 678.900818,420.984344 
	C670.134521,421.158691 661.692444,422.252441 655.046570,429.120972 
	C652.552124,431.699005 649.384216,433.818146 646.177002,435.477051 
	C637.144409,440.149048 630.259827,452.940063 635.226929,463.030365 
	C638.983276,470.660919 639.635986,479.361023 639.153931,487.953033 
	C638.991699,490.844177 639.834656,493.516571 640.511169,496.276154 
	C644.355713,511.958527 654.794556,523.546814 664.768799,535.368225 
	C674.396973,546.779480 687.296265,549.769226 701.498718,544.881714 
	C709.841309,542.010803 718.998901,540.821594 726.940735,544.363892 
	C736.966980,548.835876 744.871033,556.339233 746.964417,568.221558 
	C748.005188,574.129150 750.885925,575.465210 755.647095,571.722961 
	C762.262085,566.523743 769.290222,561.645325 774.733093,555.150513 
	C786.280457,541.371338 797.547241,527.356995 809.384216,512.891052 
z"/>
<path fill="#000000" opacity="1.000000" stroke="none" 
	d="
M481.752441,123.469589 
	C518.662354,117.660530 553.901428,147.378006 554.419189,184.145203 
	C554.551331,193.527649 553.354004,202.642990 549.748535,212.115799 
	C578.149719,214.819305 598.577454,227.869980 608.676453,254.413483 
	C614.942566,270.882843 614.008423,287.419403 606.532776,303.417480 
	C591.961121,334.601135 551.105286,352.809204 513.500732,328.797577 
	C514.279358,332.020294 515.527649,334.378265 516.974609,336.645142 
	C522.509827,345.317078 529.196899,352.887451 538.151611,358.171021 
	C541.974792,360.426880 544.478149,363.331665 543.051575,367.935211 
	C541.737122,372.176636 538.021179,372.860779 534.162109,372.859985 
	C504.845551,372.853943 475.528931,372.850525 446.212463,372.790802 
	C442.837158,372.783936 439.766022,371.696136 438.873047,368.016205 
	C437.967133,364.282867 439.244659,361.350739 442.582886,359.022034 
	C456.164520,349.547394 463.346558,341.476776 468.140442,330.219849 
	C448.938171,341.800568 429.322052,344.798126 409.011108,336.882629 
	C388.540070,328.904755 375.282257,313.876129 370.044403,292.535217 
	C361.279510,256.824188 384.792908,215.377090 432.568390,213.075729 
	C423.201172,188.938858 425.500641,166.246246 441.792206,145.919662 
	C451.879700,133.333710 465.388519,126.143509 481.752441,123.469589 
M598.696106,279.247589 
	C600.071777,248.431427 574.333740,223.425766 542.974548,227.154388 
	C541.651367,227.311691 540.297668,227.303284 539.001282,227.576385 
	C535.923584,228.224808 533.359558,227.452332 531.451477,224.953354 
	C529.336792,222.183731 529.846008,219.361511 531.498779,216.555222 
	C532.513062,214.833069 533.474792,213.078003 534.404846,211.308655 
	C540.371033,199.958344 542.058655,187.952377 539.334290,175.466385 
	C535.174744,156.402893 518.633118,140.937759 499.123993,137.530792 
	C479.910248,134.175430 459.422211,143.103027 449.187378,159.951279 
	C437.263672,179.579620 438.620087,198.866608 451.998138,217.381302 
	C454.346161,220.630859 455.572052,223.975830 452.998291,227.459671 
	C450.705994,230.562485 447.504791,230.413498 443.965637,229.452408 
	C410.771423,220.438324 377.756927,249.606918 382.457001,283.708466 
	C385.322998,304.502899 401.382294,321.709015 422.199585,326.289276 
	C441.688812,330.577332 463.135162,321.134827 474.199860,303.272949 
	C476.398163,299.724213 478.902618,297.067810 483.452850,298.411530 
	C487.819733,299.701141 488.512268,303.186890 488.313385,307.158295 
	C487.433502,324.729889 481.242249,340.210510 470.113190,353.779236 
	C469.021027,355.110840 467.416779,356.171692 467.130188,358.159424 
	C483.242798,358.159424 499.023468,358.159424 515.526855,358.159424 
	C514.018738,356.331329 513.076355,355.189697 512.134705,354.047516 
	C501.191742,340.775146 495.314178,325.473511 493.854370,308.403595 
	C493.811829,307.906097 493.826782,307.403931 493.796082,306.905090 
	C493.558685,303.049255 494.711243,299.950165 498.625397,298.545776 
	C502.677063,297.092041 505.219727,299.196411 507.412354,302.331360 
	C516.984619,316.017731 529.593994,325.025848 546.688965,325.732605 
	C574.014343,326.862366 594.680481,308.483826 598.696106,279.247589 
z"/>
<path fill="#000000" opacity="1.000000" stroke="none" 
	d="
M430.465210,772.524780 
	C416.844543,756.882935 401.923248,743.131531 385.912659,730.545349 
	C377.979156,724.308777 378.041168,720.383606 385.904083,714.242798 
	C422.777252,685.445618 452.365417,650.480042 474.407990,609.187256 
	C477.540894,603.318237 480.352783,597.277527 483.293640,591.306580 
	C484.759552,588.330200 486.606628,585.822510 490.329712,585.812744 
	C494.250854,585.802368 496.056427,588.304077 497.589355,591.588318 
	C520.619934,640.929565 553.563171,682.380249 596.678345,715.696594 
	C602.176758,719.945435 602.268005,724.799866 596.611694,729.181152 
	C572.231262,748.066040 550.767334,769.787659 532.441772,794.607849 
	C519.040894,812.758057 507.569122,832.045959 498.123444,852.531189 
	C496.524353,855.999207 494.846436,859.187256 490.356812,859.180115 
	C486.073761,859.173340 484.500336,856.117737 482.965576,852.813721 
	C469.405457,823.621155 452.076050,796.882507 430.465210,772.524780 
M495.907959,619.549011 
	C494.207153,616.424988 492.506348,613.300964 490.399231,609.430725 
	C467.488068,653.736023 437.383118,691.017090 398.676636,722.331543 
	C436.890076,753.726868 467.471710,790.717896 490.449982,835.449768 
	C513.478577,790.740784 543.795532,753.814392 582.161621,722.463684 
	C546.749390,693.499756 518.114563,659.657532 495.907959,619.549011 
z"/>
</svg>