<svg version="1.1" id="Layer_1" xmlns="http://www.w3.org/2000/svg" xmlns:xlink="http://www.w3.org/1999/xlink" x="0px" y="0px"
	 width="100%" viewBox="0 0 512 512" enable-background="new 0 0 512 512" xml:space="preserve">
<path fill="#000000" opacity="1.000000" stroke="none" 
	d="
M513.000000,176.000000 
	C513.000000,288.639282 513.000000,400.778564 513.000000,512.958923 
	C342.402374,512.958923 171.804733,512.958923 1.103551,512.958923 
	C1.103551,342.444092 1.103551,171.888077 1.103551,1.166036 
	C171.666534,1.166036 342.333252,1.166036 513.000000,1.166036 
	C513.000000,59.195225 513.000000,117.347610 513.000000,176.000000 
M209.829529,412.615906 
	C206.120392,408.159729 204.966278,402.969025 204.968613,397.265991 
	C205.012741,289.768524 204.985489,182.271088 205.019836,74.773636 
	C205.024384,60.518738 213.491211,52.022469 227.723648,52.014130 
	C303.888489,51.969505 380.053375,51.971054 456.218231,52.012463 
	C470.334381,52.020138 478.861481,60.672348 478.982391,74.815918 
	C479.069305,84.980721 478.984100,95.149040 479.229858,105.309654 
	C479.370544,111.125450 481.427490,112.962761 486.726715,112.919052 
	C492.116669,112.874596 493.922821,111.060364 493.960205,105.153252 
	C494.039307,92.654045 494.035034,80.153862 493.984772,67.654404 
	C493.918213,51.093697 483.686096,39.204914 467.270996,36.755726 
	C463.501862,36.193363 459.642365,36.035603 455.824188,36.032822 
	C396.325623,35.989498 336.827026,36.001499 277.328430,36.002705 
	C260.495483,36.003048 243.661972,35.923431 226.829834,36.040974 
	C213.499252,36.134068 201.310287,38.747318 193.591507,51.376148 
	C192.567902,53.050900 189.868927,54.177795 187.747253,54.633251 
	C159.746872,60.643986 131.701202,66.443497 103.692459,72.415771 
	C98.499710,73.523018 92.972290,74.301964 88.367958,76.705109 
	C71.582237,85.466125 67.403336,98.202415 70.794739,116.701057 
	C76.764664,149.264481 83.822510,181.630478 90.577202,214.047394 
	C96.786560,243.847214 103.233292,273.597473 109.506866,303.384003 
	C114.648880,327.798035 119.498970,352.275085 124.827515,376.647888 
	C130.629013,403.183929 133.336823,430.463379 143.889847,457.302582 
	C135.706680,458.752258 127.492516,460.236969 119.260452,461.614777 
	C118.529877,461.737091 117.677017,461.180115 116.890686,460.910278 
	C106.974503,457.506744 103.072464,449.530731 101.190353,440.095367 
	C99.204536,430.140198 97.461731,420.135193 95.380882,410.200531 
	C89.685089,383.006958 83.752754,355.862579 78.127151,328.654663 
	C71.189407,295.100647 64.574127,261.479919 57.620235,227.929306 
	C51.003090,196.003433 44.067757,164.143524 37.432510,132.221329 
	C36.394283,127.226402 35.127178,121.891266 35.865971,117.000458 
	C37.158733,108.442421 43.619022,103.783104 51.495892,101.103287 
	C56.710491,99.329216 55.828320,95.062851 55.605766,91.122963 
	C55.375996,87.055389 52.781471,86.083885 49.106083,85.971207 
	C42.240128,85.760735 36.446838,88.123360 31.122396,92.249550 
	C17.586058,102.739540 18.262449,117.553909 20.822916,131.625092 
	C26.359329,162.050781 33.418591,192.197556 39.724743,222.485504 
	C46.369545,254.399933 52.869385,286.344574 59.419807,318.278625 
	C63.832710,339.791992 68.138222,361.327850 72.647820,382.820892 
	C77.292137,404.956116 82.929825,426.918182 86.629814,449.205505 
	C89.762932,468.078247 105.534081,480.785706 126.620689,477.263519 
	C139.739243,475.072235 152.684601,471.841370 165.704117,469.060364 
	C185.729507,464.782867 205.727676,460.373993 225.781403,456.234100 
	C252.512558,450.715729 279.244446,445.182434 306.061798,440.108948 
	C316.632233,438.109100 327.422272,436.297791 338.132019,436.179321 
	C379.292725,435.723938 420.461670,435.901306 461.626953,436.027496 
	C478.804352,436.080170 494.515930,421.614349 494.255829,403.516663 
	C493.523010,352.528412 494.001801,301.522766 493.992767,250.523972 
	C493.992401,248.526016 494.208282,246.445953 493.725494,244.556961 
	C493.359100,243.123444 492.332275,241.360886 491.096619,240.731430 
	C484.929138,237.589554 479.274384,241.118027 479.037201,248.055161 
	C478.957520,250.386032 478.994263,252.721191 478.994019,255.054398 
	C478.989502,302.553284 479.020020,350.052185 478.963898,397.550995 
	C478.948059,410.947052 470.404755,419.934052 457.392883,419.946808 
	C380.394806,420.022461 303.396667,419.985992 226.398529,419.973969 
	C220.095230,419.972992 214.672424,417.812958 209.829529,412.615906 
M325.433990,353.065430 
	C310.690460,337.694244 295.804382,322.456177 281.271118,306.888672 
	C275.148254,300.330139 269.782013,293.066467 264.047455,286.143555 
	C261.591583,283.178711 255.811172,281.924957 252.172867,283.583923 
	C248.444275,285.284027 248.454208,288.919250 249.240097,291.784393 
	C250.253967,295.480682 252.027451,299.216736 254.352692,302.265289 
	C270.740082,323.750366 289.263458,343.326294 308.794495,361.950806 
	C317.344177,370.103668 326.031982,378.129578 334.972351,385.847870 
	C340.180359,390.344025 343.794373,390.397217 348.699768,385.843231 
	C363.919128,371.714386 379.125519,357.550354 393.817535,342.879852 
	C413.890259,322.836487 432.065216,301.213470 446.855682,276.843536 
	C459.820465,255.481766 463.036316,232.871048 455.371246,209.254715 
	C448.058289,186.723404 433.265320,170.547928 409.572205,165.457489 
	C384.946899,160.166748 363.797668,167.291519 347.870697,187.624268 
	C346.075165,189.916504 344.093140,192.062653 342.282013,194.177994 
	C336.260468,188.023438 330.912811,182.159714 325.145538,176.742767 
	C311.593079,164.013504 283.187256,159.910645 266.243347,167.696487 
	C261.312225,169.962372 261.056702,173.725815 261.679199,178.035797 
	C262.298798,182.325943 265.560089,183.057007 269.140106,182.939651 
	C271.454651,182.863800 273.947998,183.001297 276.039368,182.201523 
	C290.625275,176.623611 302.830933,181.688110 314.013641,190.667465 
	C324.246307,198.883957 330.491577,210.102173 336.414093,221.550278 
	C337.496979,223.643402 339.942749,226.298737 341.824097,226.350647 
	C343.660309,226.401337 346.016693,223.753036 347.386536,221.766739 
	C353.408905,213.034103 358.459717,203.535782 365.182098,195.405991 
	C373.425751,185.436523 384.436554,179.392639 397.906097,180.108704 
	C408.895447,180.692917 418.112061,185.893417 425.429016,193.784576 
	C439.469177,208.926529 448.278564,226.178680 441.058411,247.301270 
	C437.921112,256.479462 433.356628,265.493713 427.820007,273.455658 
	C418.347961,287.077026 408.405853,300.551636 397.199615,312.744659 
	C380.545135,330.865662 362.608093,347.807190 345.244171,365.277802 
	C343.051788,367.483643 341.109406,367.549408 338.819305,365.362915 
	C334.605896,361.340210 330.248962,357.467804 325.433990,353.065430 
M227.750122,134.324783 
	C236.100113,135.910309 237.641220,134.942505 241.192963,127.255180 
	C242.224503,125.022552 244.154648,121.900108 246.037292,121.618073 
	C251.053741,120.866577 256.528931,120.517540 261.296478,121.865822 
	C263.747650,122.559029 265.249451,127.122978 266.873077,130.105026 
	C269.168121,134.320190 272.708984,135.936157 277.753357,134.737488 
	C282.192230,133.682709 282.081299,130.152313 281.897675,126.816269 
	C281.762482,124.360672 281.525299,121.722839 280.527649,119.533440 
	C274.601471,106.528046 268.276093,93.703110 262.446320,80.656029 
	C260.373108,76.016151 257.180420,74.911606 252.578247,74.941109 
	C247.969635,74.970665 245.578522,77.285393 244.087250,81.237190 
	C243.324966,83.257195 242.397156,85.217148 241.494110,87.181236 
	C236.149445,98.805618 230.673248,110.371567 225.499374,122.071304 
	C223.699142,126.142159 223.108566,130.472061 227.750122,134.324783 
z"/>
<path fill="#1A1A1C" opacity="1.000000" stroke="none" 
	d="
M210.090576,412.868530 
	C214.672424,417.812958 220.095230,419.972992 226.398529,419.973969 
	C303.396667,419.985992 380.394806,420.022461 457.392883,419.946808 
	C470.404755,419.934052 478.948059,410.947052 478.963898,397.550995 
	C479.020020,350.052185 478.989502,302.553284 478.994019,255.054398 
	C478.994263,252.721191 478.957520,250.386032 479.037201,248.055161 
	C479.274384,241.118027 484.929138,237.589554 491.096619,240.731430 
	C492.332275,241.360886 493.359100,243.123444 493.725494,244.556961 
	C494.208282,246.445953 493.992401,248.526016 493.992767,250.523972 
	C494.001801,301.522766 493.523010,352.528412 494.255829,403.516663 
	C494.515930,421.614349 478.804352,436.080170 461.626953,436.027496 
	C420.461670,435.901306 379.292725,435.723938 338.132019,436.179321 
	C327.422272,436.297791 316.632233,438.109100 306.061798,440.108948 
	C279.244446,445.182434 252.512558,450.715729 225.781403,456.234100 
	C205.727676,460.373993 185.729507,464.782867 165.704117,469.060364 
	C152.684601,471.841370 139.739243,475.072235 126.620689,477.263519 
	C105.534081,480.785706 89.762932,468.078247 86.629814,449.205505 
	C82.929825,426.918182 77.292137,404.956116 72.647820,382.820892 
	C68.138222,361.327850 63.832710,339.791992 59.419807,318.278625 
	C52.869385,286.344574 46.369545,254.399933 39.724743,222.485504 
	C33.418591,192.197556 26.359329,162.050781 20.822916,131.625092 
	C18.262449,117.553909 17.586058,102.739540 31.122396,92.249550 
	C36.446838,88.123360 42.240128,85.760735 49.106083,85.971207 
	C52.781471,86.083885 55.375996,87.055389 55.605766,91.122963 
	C55.828320,95.062851 56.710491,99.329216 51.495892,101.103287 
	C43.619022,103.783104 37.158733,108.442421 35.865971,117.000458 
	C35.127178,121.891266 36.394283,127.226402 37.432510,132.221329 
	C44.067757,164.143524 51.003090,196.003433 57.620235,227.929306 
	C64.574127,261.479919 71.189407,295.100647 78.127151,328.654663 
	C83.752754,355.862579 89.685089,383.006958 95.380882,410.200531 
	C97.461731,420.135193 99.204536,430.140198 101.190353,440.095367 
	C103.072464,449.530731 106.974503,457.506744 116.890686,460.910278 
	C117.677017,461.180115 118.529877,461.737091 119.260452,461.614777 
	C127.492516,460.236969 135.706680,458.752258 143.889847,457.302582 
	C133.336823,430.463379 130.629013,403.183929 124.827515,376.647888 
	C119.498970,352.275085 114.648880,327.798035 109.506866,303.384003 
	C103.233292,273.597473 96.786560,243.847214 90.577202,214.047394 
	C83.822510,181.630478 76.764664,149.264481 70.794739,116.701057 
	C67.403336,98.202415 71.582237,85.466125 88.367958,76.705109 
	C92.972290,74.301964 98.499710,73.523018 103.692459,72.415771 
	C131.701202,66.443497 159.746872,60.643986 187.747253,54.633251 
	C189.868927,54.177795 192.567902,53.050900 193.591507,51.376148 
	C201.310287,38.747318 213.499252,36.134068 226.829834,36.040974 
	C243.661972,35.923431 260.495483,36.003048 277.328430,36.002705 
	C336.827026,36.001499 396.325623,35.989498 455.824188,36.032822 
	C459.642365,36.035603 463.501862,36.193363 467.270996,36.755726 
	C483.686096,39.204914 493.918213,51.093697 493.984772,67.654404 
	C494.035034,80.153862 494.039307,92.654045 493.960205,105.153252 
	C493.922821,111.060364 492.116669,112.874596 486.726715,112.919052 
	C481.427490,112.962761 479.370544,111.125450 479.229858,105.309654 
	C478.984100,95.149040 479.069305,84.980721 478.982391,74.815918 
	C478.861481,60.672348 470.334381,52.020138 456.218231,52.012463 
	C380.053375,51.971054 303.888489,51.969505 227.723648,52.014130 
	C213.491211,52.022469 205.024384,60.518738 205.019836,74.773636 
	C204.985489,182.271088 205.012741,289.768524 204.968613,397.265991 
	C204.966278,402.969025 206.120392,408.159729 210.090576,412.868530 
M457.121765,49.595139 
	C454.977325,49.397469 452.832977,49.027912 450.688477,49.027020 
	C378.294220,48.996834 305.899994,48.992947 233.505768,49.039104 
	C231.047455,49.040668 228.589523,49.596733 225.517136,49.948254 
	C224.637146,50.043575 223.757156,50.138901 222.877182,50.234222 
	C222.894562,50.481819 222.911942,50.729416 222.929337,50.977013 
	C224.902985,50.977013 226.876648,50.977009 228.850311,50.977009 
	C282.407104,50.977047 335.963898,50.977409 389.520691,50.976959 
	C410.810364,50.976780 432.100067,50.996490 453.389526,50.927147 
	C454.883514,50.922279 456.375366,50.252869 457.121765,49.595139 
M191.543091,400.313293 
	C191.693008,398.662354 191.973831,397.011414 191.974152,395.360443 
	C191.994873,289.122955 191.998550,182.885437 191.946976,76.647964 
	C191.946060,74.759476 191.258804,72.871315 190.591217,71.457581 
	C190.350906,71.964386 190.110596,72.471191 189.500000,72.978889 
	C189.500000,72.978889 189.129715,72.977997 188.422958,72.666397 
	C186.617294,72.626350 184.737106,72.234505 183.017136,72.598907 
	C156.146301,78.291901 129.264587,83.943031 102.476730,90.007317 
	C98.637886,90.876358 94.787056,93.298576 91.787933,95.956696 
	C84.109978,102.761612 85.928833,111.527260 87.805527,120.154022 
	C91.516739,137.213699 95.297218,154.259659 98.826698,171.357208 
	C105.046600,201.487701 111.047951,231.663300 117.242561,261.799072 
	C120.826622,279.235016 124.629425,296.625885 128.296936,314.044800 
	C131.414597,328.852142 134.522629,343.661804 137.554611,358.486847 
	C140.154434,371.198944 142.518707,383.960175 145.210541,396.652252 
	C148.002808,409.817871 150.642365,423.039917 154.138351,436.024689 
	C157.007172,446.680054 166.782990,451.670105 177.600204,449.396576 
	C190.294617,446.728516 203.039001,444.298920 215.753387,441.724854 
	C223.154373,440.226471 230.539093,438.647675 237.931122,437.105042 
	C233.044235,435.993835 228.260941,436.014008 223.477875,435.990326 
	C202.305573,435.885406 188.964279,422.300903 189.499115,401.019043 
	C189.499115,401.019043 189.881134,401.020142 190.166809,401.074799 
	C190.457672,401.093536 190.743484,401.055664 191.543091,400.313293 
M442.499878,39.000214 
	C448.942078,39.000214 455.384277,39.000214 461.826477,39.000214 
	C461.816986,38.791294 461.807495,38.582378 461.798004,38.373459 
	C381.931854,38.373459 302.065704,38.373459 222.199570,38.373459 
	C222.199997,38.582378 222.200424,38.791294 222.200851,39.000214 
	C295.300537,39.000214 368.400238,39.000214 442.499878,39.000214 
M449.226898,423.000702 
	C451.135559,423.000702 453.044220,423.000702 454.952911,423.000702 
	C454.948639,422.775177 454.944366,422.549622 454.940094,422.324097 
	C379.655579,422.324097 304.371094,422.324097 229.086609,422.324097 
	C229.086502,422.549683 229.086411,422.775299 229.086304,423.000885 
	C302.159271,423.000885 375.232208,423.000885 449.226898,423.000702 
M374.500000,432.998779 
	C359.719360,432.998779 344.938721,432.998779 330.158081,432.998779 
	C330.162170,433.214447 330.166229,433.430115 330.170319,433.645782 
	C374.057922,433.645782 417.945526,433.645782 461.833130,433.645782 
	C461.832672,433.430115 461.832214,433.214447 461.831757,432.998779 
	C433.054504,432.998779 404.277252,432.998779 374.500000,432.998779 
M246.499664,432.998779 
	C238.041946,432.998779 229.584213,432.998779 221.126495,432.998779 
	C221.132797,433.220245 221.139084,433.441681 221.145386,433.663147 
	C235.718628,433.663147 250.291885,433.663147 264.865143,433.663147 
	C264.864838,433.441681 264.864563,433.220245 264.864258,432.998779 
	C259.075958,432.998779 253.287643,432.998779 246.499664,432.998779 
z"/>
<path fill="#1A1A1C" opacity="1.000000" stroke="none" 
	d="
M325.692932,353.299072 
	C330.248962,357.467804 334.605896,361.340210 338.819305,365.362915 
	C341.109406,367.549408 343.051788,367.483643 345.244171,365.277802 
	C362.608093,347.807190 380.545135,330.865662 397.199615,312.744659 
	C408.405853,300.551636 418.347961,287.077026 427.820007,273.455658 
	C433.356628,265.493713 437.921112,256.479462 441.058411,247.301270 
	C448.278564,226.178680 439.469177,208.926529 425.429016,193.784576 
	C418.112061,185.893417 408.895447,180.692917 397.906097,180.108704 
	C384.436554,179.392639 373.425751,185.436523 365.182098,195.405991 
	C358.459717,203.535782 353.408905,213.034103 347.386536,221.766739 
	C346.016693,223.753036 343.660309,226.401337 341.824097,226.350647 
	C339.942749,226.298737 337.496979,223.643402 336.414093,221.550278 
	C330.491577,210.102173 324.246307,198.883957 314.013641,190.667465 
	C302.830933,181.688110 290.625275,176.623611 276.039368,182.201523 
	C273.947998,183.001297 271.454651,182.863800 269.140106,182.939651 
	C265.560089,183.057007 262.298798,182.325943 261.679199,178.035797 
	C261.056702,173.725815 261.312225,169.962372 266.243347,167.696487 
	C283.187256,159.910645 311.593079,164.013504 325.145538,176.742767 
	C330.912811,182.159714 336.260468,188.023438 342.282013,194.177994 
	C344.093140,192.062653 346.075165,189.916504 347.870697,187.624268 
	C363.797668,167.291519 384.946899,160.166748 409.572205,165.457489 
	C433.265320,170.547928 448.058289,186.723404 455.371246,209.254715 
	C463.036316,232.871048 459.820465,255.481766 446.855682,276.843536 
	C432.065216,301.213470 413.890259,322.836487 393.817535,342.879852 
	C379.125519,357.550354 363.919128,371.714386 348.699768,385.843231 
	C343.794373,390.397217 340.180359,390.344025 334.972351,385.847870 
	C326.031982,378.129578 317.344177,370.103668 308.794495,361.950806 
	C289.263458,343.326294 270.740082,323.750366 254.352692,302.265289 
	C252.027451,299.216736 250.253967,295.480682 249.240097,291.784393 
	C248.454208,288.919250 248.444275,285.284027 252.172867,283.583923 
	C255.811172,281.924957 261.591583,283.178711 264.047455,286.143555 
	C269.782013,293.066467 275.148254,300.330139 281.271118,306.888672 
	C295.804382,322.456177 310.690460,337.694244 325.692932,353.299072 
z"/>
<path fill="#1A1A1C" opacity="1.000000" stroke="none" 
	d="
M227.424927,134.145966 
	C223.108566,130.472061 223.699142,126.142159 225.499374,122.071304 
	C230.673248,110.371567 236.149445,98.805618 241.494110,87.181236 
	C242.397156,85.217148 243.324966,83.257195 244.087250,81.237190 
	C245.578522,77.285393 247.969635,74.970665 252.578247,74.941109 
	C257.180420,74.911606 260.373108,76.016151 262.446320,80.656029 
	C268.276093,93.703110 274.601471,106.528046 280.527649,119.533440 
	C281.525299,121.722839 281.762482,124.360672 281.897675,126.816269 
	C282.081299,130.152313 282.192230,133.682709 277.753357,134.737488 
	C272.708984,135.936157 269.168121,134.320190 266.873077,130.105026 
	C265.249451,127.122978 263.747650,122.559029 261.296478,121.865822 
	C256.528931,120.517540 251.053741,120.866577 246.037292,121.618073 
	C244.154648,121.900108 242.224503,125.022552 241.192963,127.255180 
	C237.641220,134.942505 236.100113,135.910309 227.424927,134.145966 
z"/>
<path fill="#000000" opacity="1.000000" stroke="none" 
	d="
M189.118866,401.020233 
	C188.964279,422.300903 202.305573,435.885406 223.477875,435.990326 
	C228.260941,436.014008 233.044235,435.993835 237.931122,437.105042 
	C230.539093,438.647675 223.154373,440.226471 215.753387,441.724854 
	C203.039001,444.298920 190.294617,446.728516 177.600204,449.396576 
	C166.782990,451.670105 157.007172,446.680054 154.138351,436.024689 
	C150.642365,423.039917 148.002808,409.817871 145.210541,396.652252 
	C142.518707,383.960175 140.154434,371.198944 137.554611,358.486847 
	C134.522629,343.661804 131.414597,328.852142 128.296936,314.044800 
	C124.629425,296.625885 120.826622,279.235016 117.242561,261.799072 
	C111.047951,231.663300 105.046600,201.487701 98.826698,171.357208 
	C95.297218,154.259659 91.516739,137.213699 87.805527,120.154022 
	C85.928833,111.527260 84.109978,102.761612 91.787933,95.956696 
	C94.787056,93.298576 98.637886,90.876358 102.476730,90.007317 
	C129.264587,83.943031 156.146301,78.291901 183.017136,72.598907 
	C184.737106,72.234505 186.617294,72.626350 188.748322,73.290970 
	C189.049133,177.457748 189.022675,280.999939 189.005219,384.542145 
	C189.004288,390.034851 189.079239,395.527527 189.118866,401.020233 
z"/>
<path fill="#000000" opacity="1.000000" stroke="none" 
	d="
M189.870270,72.977997 
	C190.110596,72.471191 190.350906,71.964386 190.760727,71.689827 
	C190.953705,74.418091 190.997498,76.914101 190.997757,79.410118 
	C191.009018,186.593811 191.016388,293.777527 191.024261,400.961212 
	C190.743484,401.055664 190.457672,401.093536 190.050049,400.578857 
	C189.946442,291.879486 189.959808,183.676071 189.968475,75.472641 
	C189.968536,74.641090 189.904419,73.809547 189.870270,72.977997 
z"/>
<path fill="#474757" opacity="1.000000" stroke="none" 
	d="
M191.283676,400.637268 
	C191.016388,293.777527 191.009018,186.593811 190.997757,79.410118 
	C190.997498,76.914101 190.953705,74.418091 190.911011,71.452530 
	C191.258804,72.871315 191.946060,74.759476 191.946976,76.647964 
	C191.998550,182.885437 191.994873,289.122955 191.974152,395.360443 
	C191.973831,397.011414 191.693008,398.662354 191.283676,400.637268 
z"/>
<path fill="#171718" opacity="1.000000" stroke="none" 
	d="
M189.685135,72.978439 
	C189.904419,73.809547 189.968536,74.641090 189.968475,75.472641 
	C189.959808,183.676071 189.946442,291.879486 189.907211,400.551514 
	C189.881134,401.020142 189.499115,401.019043 189.308990,401.019653 
	C189.079239,395.527527 189.004288,390.034851 189.005219,384.542145 
	C189.022675,280.999939 189.049133,177.457748 189.101715,73.446777 
	C189.129715,72.977997 189.500000,72.978889 189.685135,72.978439 
z"/>
<path fill="#000000" opacity="1.000000" stroke="none" 
	d="
M441.999908,39.000214 
	C368.400238,39.000214 295.300537,39.000214 222.200851,39.000214 
	C222.200424,38.791294 222.199997,38.582378 222.199570,38.373459 
	C302.065704,38.373459 381.931854,38.373459 461.798004,38.373459 
	C461.807495,38.582378 461.816986,38.791294 461.826477,39.000214 
	C455.384277,39.000214 448.942078,39.000214 441.999908,39.000214 
z"/>
<path fill="#404006" opacity="1.000000" stroke="none" 
	d="
M457.868195,49.892471 
	C456.375366,50.252869 454.883514,50.922279 453.389526,50.927147 
	C432.100067,50.996490 410.810364,50.976780 389.520691,50.976959 
	C335.963898,50.977409 282.407104,50.977047 228.850311,50.977009 
	C226.876648,50.977009 224.902985,50.977013 222.929337,50.977013 
	C222.911942,50.729416 222.894562,50.481819 222.877182,50.234222 
	C223.757156,50.138901 224.637146,50.043575 226.282730,49.948647 
	C257.524719,49.966080 288.001129,50.005463 318.477539,49.994946 
	C364.941101,49.978912 411.404633,49.928364 457.868195,49.892471 
z"/>
<path fill="#000000" opacity="1.000000" stroke="none" 
	d="
M457.494995,49.743805 
	C411.404633,49.928364 364.941101,49.978912 318.477539,49.994946 
	C288.001129,50.005463 257.524719,49.966080 226.589874,49.921692 
	C228.589523,49.596733 231.047455,49.040668 233.505768,49.039104 
	C305.899994,48.992947 378.294220,48.996834 450.688477,49.027020 
	C452.832977,49.027912 454.977325,49.397469 457.494995,49.743805 
z"/>
<path fill="#000000" opacity="1.000000" stroke="none" 
	d="
M448.766052,423.000793 
	C375.232208,423.000885 302.159271,423.000885 229.086304,423.000885 
	C229.086411,422.775299 229.086502,422.549683 229.086609,422.324097 
	C304.371094,422.324097 379.655579,422.324097 454.940094,422.324097 
	C454.944366,422.549622 454.948639,422.775177 454.952911,423.000702 
	C453.044220,423.000702 451.135559,423.000702 448.766052,423.000793 
z"/>
<path fill="#000000" opacity="1.000000" stroke="none" 
	d="
M375.000000,432.998779 
	C404.277252,432.998779 433.054504,432.998779 461.831757,432.998779 
	C461.832214,433.214447 461.832672,433.430115 461.833130,433.645782 
	C417.945526,433.645782 374.057922,433.645782 330.170319,433.645782 
	C330.166229,433.430115 330.162170,433.214447 330.158081,432.998779 
	C344.938721,432.998779 359.719360,432.998779 375.000000,432.998779 
z"/>
<path fill="#000000" opacity="1.000000" stroke="none" 
	d="
M246.999496,432.998779 
	C253.287643,432.998779 259.075958,432.998779 264.864258,432.998779 
	C264.864563,433.220245 264.864838,433.441681 264.865143,433.663147 
	C250.291885,433.663147 235.718628,433.663147 221.145386,433.663147 
	C221.139084,433.441681 221.132797,433.220245 221.126495,432.998779 
	C229.584213,432.998779 238.041946,432.998779 246.999496,432.998779 
z"/>
</svg>