<?xml version="1.0" encoding="utf-8"?>
<!-- Generator: Adobe Illustrator 21.0.2, SVG Export Plug-In . SVG Version: 6.00 Build 0)  -->
<svg version="1.1" id="Layer_1" xmlns="http://www.w3.org/2000/svg" xmlns:xlink="http://www.w3.org/1999/xlink" x="0px" y="0px"
	 viewBox="0 0 2000 2000" style="enable-background:new 0 0 2000 2000;" xml:space="preserve">
<g>
	<g>
		<path d="M1000,1807.7L1000,1807.7c-14.2,0-27.8-5.9-37.5-16.3c-21.8-23.5-534.4-578.7-534.4-882.9
			c0-315.3,256.5-571.9,571.9-571.9s571.9,256.5,571.9,571.9c0,304.2-512.6,859.5-534.5,882.9
			C1027.8,1801.8,1014.2,1807.7,1000,1807.7z M1000,438.8c-258.9,0-469.6,210.6-469.6,469.6c0,201.9,310.3,592.8,469.6,772
			c159.3-179.2,469.6-570.1,469.6-772C1469.6,649.5,1258.9,438.8,1000,438.8z"/>
	</g>
	<g>
		<path d="M1000,1140.9c-142,0-257.5-115.5-257.5-257.5C742.5,741.5,858,626,1000,626c142,0,257.5,115.5,257.5,257.5
			C1257.5,1025.4,1142,1140.9,1000,1140.9z M1000,728.3c-85.6,0-155.2,69.6-155.2,155.2c0,85.6,69.6,155.2,155.2,155.2
			c85.6,0,155.2-69.6,155.2-155.2C1155.2,797.9,1085.6,728.3,1000,728.3z"/>
	</g>
</g>
</svg>
