<?xml version="1.0" standalone="no"?>
<!DOCTYPE svg PUBLIC "-//W3C//DTD SVG 20010904//EN"
 "http://www.w3.org/TR/2001/REC-SVG-20010904/DTD/svg10.dtd">
<svg version="1.0" xmlns="http://www.w3.org/2000/svg"
 width="512.000000pt" height="512.000000pt" viewBox="0 0 512.000000 512.000000"
 preserveAspectRatio="xMidYMid meet">
<metadata>
Created by potrace 1.16, written by Peter Selinger 2001-2019
</metadata>
<g transform="translate(0.000000,512.000000) scale(0.100000,-0.100000)"
fill="#000000" stroke="none">
<path d="M2285 5105 c-424 -66 -789 -248 -1081 -539 -271 -271 -449 -600 -530
-981 -35 -164 -45 -482 -20 -655 62 -430 262 -822 567 -1115 127 -121 230
-197 432 -316 76 -44 95 -77 104 -173 6 -77 6 -77 32 -71 76 20 210 24 771 24
561 0 695 -4 771 -24 26 -6 26 -6 32 71 9 101 30 133 115 181 545 301 901 811
987 1414 19 135 19 423 0 558 -119 834 -788 1503 -1626 1625 -129 19 -437 20
-554 1z m355 -818 c52 -34 71 -76 77 -165 l6 -78 60 -14 c33 -7 108 -37 166
-66 l106 -53 50 48 c62 60 82 71 137 71 82 0 148 -66 148 -148 0 -55 -11 -75
-71 -137 l-48 -50 53 -106 c29 -58 59 -133 66 -166 l14 -60 78 -6 c124 -8 188
-61 188 -157 0 -96 -64 -149 -188 -157 l-78 -6 -14 -60 c-7 -33 -37 -108 -66
-166 l-53 -106 48 -50 c60 -62 71 -82 71 -137 0 -82 -66 -148 -148 -148 -55 0
-75 11 -137 71 l-50 48 -106 -53 c-58 -29 -133 -59 -166 -66 l-60 -14 -6 -78
c-8 -124 -61 -188 -157 -188 -96 0 -149 64 -157 188 l-6 78 -60 14 c-33 7
-108 37 -166 66 l-106 53 -50 -48 c-62 -60 -82 -71 -137 -71 -82 0 -148 66
-148 148 0 55 10 75 72 138 l49 51 -41 75 c-40 75 -90 207 -90 238 0 14 -14
18 -80 23 -127 8 -190 61 -190 157 0 96 64 149 188 157 l78 6 14 60 c7 33 37
108 66 166 l53 106 -48 50 c-60 62 -71 82 -71 137 0 82 66 148 148 148 55 0
75 -11 137 -71 l50 -48 106 53 c58 29 133 59 166 66 l60 14 6 78 c8 124 61
188 157 188 32 0 58 -7 80 -23z"/>
<path d="M2421 3735 c-177 -50 -311 -171 -378 -341 -24 -61 -27 -83 -28 -189
0 -107 3 -128 28 -195 55 -149 172 -268 323 -327 61 -23 83 -27 189 -27 107
-1 128 2 195 27 152 56 280 185 332 335 33 96 33 268 0 365 -51 146 -189 286
-334 337 -83 29 -249 37 -327 15z"/>
<path d="M779 5037 c-50 -34 -79 -82 -79 -134 0 -67 20 -101 112 -190 64 -62
93 -83 121 -88 131 -25 227 71 202 202 -5 28 -26 57 -88 121 -45 47 -96 91
-114 98 -50 21 -115 18 -154 -9z"/>
<path d="M4185 5046 c-16 -7 -67 -51 -112 -98 -62 -64 -83 -93 -88 -121 -25
-131 71 -227 202 -202 28 5 57 26 121 88 92 89 112 123 112 190 0 83 -75 157
-159 157 -25 -1 -59 -7 -76 -14z"/>
<path d="M72 3340 c-48 -30 -72 -75 -72 -140 0 -65 24 -110 72 -140 29 -17 51
-20 168 -20 151 0 182 10 220 72 27 45 27 131 0 176 -38 62 -69 72 -220 72
-117 0 -139 -3 -168 -20z"/>
<path d="M4712 3340 c-48 -30 -72 -75 -72 -140 0 -65 24 -110 72 -140 29 -17
51 -20 168 -20 117 0 139 3 168 20 48 30 72 75 72 140 0 65 -24 110 -72 140
-29 17 -51 20 -168 20 -117 0 -139 -3 -168 -20z"/>
<path d="M905 1766 c-40 -18 -181 -163 -194 -199 -41 -108 36 -227 146 -227
67 0 101 20 190 112 62 64 83 93 88 121 21 110 -42 197 -147 204 -32 2 -65 -2
-83 -11z"/>
<path d="M4075 1766 c-80 -36 -117 -135 -81 -219 17 -40 161 -182 199 -196 77
-29 157 -2 204 68 25 37 30 100 12 148 -14 38 -156 182 -196 199 -40 17 -99
17 -138 0z"/>
<path d="M1832 940 c-18 -11 -41 -34 -52 -52 -18 -30 -20 -51 -20 -264 0 -181
3 -242 16 -285 43 -148 168 -274 315 -320 55 -17 96 -19 469 -19 373 0 414 2
469 19 147 46 272 172 315 320 13 43 16 104 16 285 0 213 -2 234 -20 264 -11
18 -34 41 -52 52 -32 19 -52 20 -728 20 -676 0 -696 -1 -728 -20z"/>
</g>
</svg>
