<?xml version="1.0" encoding="utf-8"?>
<!-- Generator: Adobe Illustrator 22.1.0, SVG Export Plug-In . SVG Version: 6.00 Build 0)  -->
<svg version="1.1" id="Layer_1" xmlns="http://www.w3.org/2000/svg" xmlns:xlink="http://www.w3.org/1999/xlink" x="0px" y="0px"
	 viewBox="0 0 512 512" style="enable-background:new 0 0 512 512;" xml:space="preserve">
<g>
	<path d="M256,129.4c27.2,0,49.2-22,49.2-49.2S283.2,31,256,31s-49.2,22-49.2,49.2S228.8,129.4,256,129.4z M410.7,424.7H101.3
		c-7.8,0-14.1,6.3-14.1,14.1v28.1c0,7.8,6.3,14.1,14.1,14.1h309.4c7.8,0,14.1-6.3,14.1-14.1v-28.1
		C424.7,431,418.5,424.7,410.7,424.7z M474.7,192.9l-25.1-14c-6.5-4.4-14.9-2.2-19.6,4.1c-9.6,12.9-25.7,19.1-41.5,16
		c-20.3-3.8-34.1-23-34.1-43.7c0-6.5-5.3-11.8-11.8-11.8h-34.1c-5.3,0-10.2,3.5-11.3,8.7c-4.8,22.8-27.2,37.4-50,32.6
		c-16.4-3.4-29.1-16.2-32.6-32.6c-1.1-5.2-6-8.7-11.3-8.7h-34.1c-6.5,0-11.8,5.3-11.8,11.8c0,22.6-16.7,42.8-39.3,44.4
		c-14.2,1-28-5.3-36.5-16.8c-4.6-6.2-12.9-8.3-19.4-4l-25.1,14.1c-5.9,3.9-8,11.6-4.8,18l90.1,185.7h266.8l90.1-185.8
		C482.7,204.5,480.6,196.8,474.7,192.9z"/>
</g>
</svg>
